<svg xmlns="http://www.w3.org/2000/svg" xmlns:xlink="http://www.w3.org/1999/xlink" width="72" height="72" version="1.1" viewBox="0 0 72 72"><g id="surface1"><path style="stroke:none;fill-rule:nonzero;fill:#fff;fill-opacity:1" d="M 47.117188 60.308594 L 14.5 60.308594 C 12.558594 60.308594 10.984375 58.730469 10.984375 56.792969 L 10.984375 23.28125 C 10.984375 21.339844 12.558594 19.765625 14.5 19.765625 L 47.109375 19.765625 C 49.050781 19.765625 50.625 21.339844 50.625 23.28125 L 50.625 56.792969 C 50.632812 58.738281 49.058594 60.308594 47.117188 60.308594 Z M 47.117188 60.308594"/><path style="stroke:none;fill-rule:nonzero;fill:#e6e6e6;fill-opacity:1" d="M 47.039062 21.042969 L 14.421875 21.042969 C 13.261719 21.042969 12.3125 21.992188 12.3125 23.152344 L 12.3125 28.492188 L 49.148438 28.492188 L 49.148438 23.152344 C 49.148438 21.992188 48.199219 21.042969 47.039062 21.042969 Z M 47.039062 21.042969"/><path style="stroke:none;fill-rule:nonzero;fill:#005bff;fill-opacity:1" d="M 60.398438 11.199219 C 59.316406 10.335938 57.902344 9.863281 56.410156 9.863281 L 25.566406 9.863281 C 24.074219 9.863281 22.65625 10.34375 21.578125 11.199219 C 20.425781 12.121094 19.757812 13.429688 19.757812 14.785156 L 19.757812 18.230469 L 14.421875 18.230469 C 11.707031 18.230469 9.5 20.441406 9.5 23.152344 L 9.5 56.664062 C 9.5 59.378906 11.707031 61.585938 14.421875 61.585938 L 47.039062 61.585938 C 49.753906 61.585938 51.960938 59.378906 51.960938 56.664062 L 51.960938 53.21875 L 56.410156 53.21875 C 57.902344 53.21875 59.324219 52.742188 60.398438 51.882812 C 61.550781 50.960938 62.21875 49.65625 62.21875 48.296875 L 62.21875 14.785156 C 62.21875 13.429688 61.550781 12.121094 60.398438 11.199219 Z M 49.148438 28.492188 L 12.3125 28.492188 L 12.3125 23.152344 C 12.3125 21.992188 13.261719 21.042969 14.421875 21.042969 L 47.039062 21.042969 C 48.199219 21.042969 49.148438 21.992188 49.148438 23.152344 Z M 49.148438 56.664062 C 49.148438 57.824219 48.199219 58.773438 47.039062 58.773438 L 14.421875 58.773438 C 13.261719 58.773438 12.3125 57.824219 12.3125 56.664062 L 12.3125 29.898438 L 49.148438 29.898438 Z M 59.40625 48.296875 C 59.40625 49.445312 58.035156 50.40625 56.410156 50.40625 L 51.960938 50.40625 L 51.960938 23.152344 C 51.960938 20.441406 49.753906 18.230469 47.039062 18.230469 L 22.570312 18.230469 L 22.570312 14.785156 C 22.570312 13.640625 23.941406 12.675781 25.566406 12.675781 L 56.410156 12.675781 C 58.035156 12.675781 59.40625 13.640625 59.40625 14.785156 Z M 59.40625 48.296875"/><path style="stroke:none;fill-rule:nonzero;fill:#fff;fill-opacity:1" d="M 37.777344 25.960938 L 27.640625 25.960938 C 26.945312 25.960938 26.382812 25.398438 26.382812 24.699219 C 26.382812 24.003906 26.945312 23.441406 27.640625 23.441406 L 37.777344 23.441406 C 38.476562 23.441406 39.039062 24.003906 39.039062 24.699219 C 39.039062 25.398438 38.476562 25.960938 37.777344 25.960938 Z M 37.777344 25.960938"/><path style="stroke:none;fill-rule:nonzero;fill:#e6e6e6;fill-opacity:1" d="M 22.527344 56.410156 L 16.753906 56.410156 C 15.589844 56.410156 14.644531 55.46875 14.644531 54.300781 L 14.644531 31.949219 L 22.527344 31.949219 Z M 44.734375 56.410156 L 24.960938 56.410156 L 24.960938 31.949219 L 46.847656 31.949219 L 46.847656 54.300781 C 46.84375 55.46875 45.898438 56.410156 44.734375 56.410156 Z M 44.734375 56.410156"/><path style="stroke:none;fill-rule:nonzero;fill:#fff;fill-opacity:1" d="M 14.871094 24.699219 C 14.871094 25.425781 15.460938 26.015625 16.1875 26.015625 C 16.910156 26.015625 17.5 25.425781 17.5 24.699219 C 17.5 23.976562 16.910156 23.386719 16.1875 23.386719 C 15.460938 23.386719 14.871094 23.976562 14.871094 24.699219 Z M 14.871094 24.699219"/><path style="stroke:none;fill-rule:nonzero;fill:#fff;fill-opacity:1" d="M 19.117188 24.699219 C 19.117188 25.425781 19.707031 26.015625 20.433594 26.015625 C 21.160156 26.015625 21.746094 25.425781 21.746094 24.699219 C 21.746094 23.976562 21.160156 23.386719 20.433594 23.386719 C 19.707031 23.386719 19.117188 23.976562 19.117188 24.699219 Z M 19.117188 24.699219"/><path style="stroke:none;fill-rule:nonzero;fill:#005bff;fill-opacity:1" d="M 15.839844 52.679688 C 15.671875 52.679688 15.511719 52.621094 15.378906 52.503906 C 15.089844 52.242188 15.0625 51.800781 15.320312 51.511719 L 23.816406 41.949219 L 32.324219 44.367188 L 45.800781 35.066406 C 46.117188 34.847656 46.5625 34.925781 46.777344 35.242188 C 46.996094 35.558594 46.917969 36 46.601562 36.21875 L 32.570312 45.894531 L 24.273438 43.539062 L 16.363281 52.4375 C 16.226562 52.59375 16.03125 52.679688 15.839844 52.679688 Z M 15.839844 52.679688"/><path style="stroke:none;fill-rule:nonzero;fill:#06f3ff;fill-opacity:1" d="M 33.039062 52.050781 L 23.808594 39.847656 L 15.144531 43.488281 C 14.785156 43.636719 14.371094 43.472656 14.222656 43.117188 C 14.078125 42.757812 14.238281 42.34375 14.597656 42.195312 L 24.265625 38.125 L 32.984375 49.660156 L 44.859375 32.597656 C 45.085938 32.28125 45.519531 32.195312 45.835938 32.421875 C 46.152344 32.644531 46.238281 33.082031 46.011719 33.398438 Z M 33.039062 52.050781"/></g></svg>