<?xml version="1.0" encoding="UTF-8"?>
<svg xmlns="http://www.w3.org/2000/svg" xmlns:xlink="http://www.w3.org/1999/xlink" width="72px" height="72px" viewBox="0 0 72 72" version="1.1">
<g id="surface1">
<path style=" stroke:none;fill-rule:nonzero;fill:rgb(0%,35.686275%,100%);fill-opacity:1;" d="M 41.816406 56.277344 L 19.152344 56.277344 C 18.402344 56.277344 17.789062 56.890625 17.789062 57.640625 C 17.789062 58.394531 18.402344 59.007812 19.152344 59.007812 L 41.816406 59.007812 C 42.566406 59.007812 43.179688 58.394531 43.179688 57.640625 C 43.179688 56.882812 42.566406 56.277344 41.816406 56.277344 Z M 41.816406 56.277344 "/>
<path style=" stroke:none;fill-rule:nonzero;fill:rgb(90.196078%,90.196078%,90.196078%);fill-opacity:1;" d="M 64.1875 54.238281 L 64.1875 56.980469 L 68.0625 56.980469 C 67.492188 55.386719 65.972656 54.238281 64.1875 54.238281 Z M 64.1875 54.238281 "/>
<path style=" stroke:none;fill-rule:nonzero;fill:rgb(100%,100%,100%);fill-opacity:1;" d="M 57.347656 47.523438 L 57.347656 16.539062 C 57.347656 15.40625 56.425781 14.492188 55.300781 14.492188 L 5.667969 14.492188 C 4.535156 14.492188 3.621094 15.414062 3.621094 16.539062 L 3.621094 47.523438 C 3.621094 48.65625 4.542969 49.570312 5.667969 49.570312 L 55.300781 49.570312 C 56.433594 49.578125 57.347656 48.65625 57.347656 47.523438 Z M 54.261719 44.570312 C 54.261719 45.695312 53.339844 46.617188 52.214844 46.617188 L 8.761719 46.617188 C 7.636719 46.617188 6.714844 45.695312 6.714844 44.570312 L 6.714844 19.496094 C 6.714844 18.371094 7.636719 17.453125 8.761719 17.453125 L 52.214844 17.453125 C 53.339844 17.453125 54.261719 18.371094 54.261719 19.496094 Z M 54.261719 44.570312 "/>
<path style=" stroke:none;fill-rule:nonzero;fill:rgb(90.196078%,90.196078%,90.196078%);fill-opacity:1;" d="M 52.214844 17.453125 L 8.761719 17.453125 C 7.636719 17.453125 6.714844 18.371094 6.714844 19.496094 L 6.714844 44.570312 C 6.714844 45.695312 7.636719 46.617188 8.761719 46.617188 L 52.214844 46.617188 C 53.339844 46.617188 54.261719 45.695312 54.261719 44.570312 L 54.261719 19.496094 C 54.261719 18.371094 53.339844 17.453125 52.214844 17.453125 Z M 15.417969 19.714844 C 15.417969 19.601562 15.511719 19.519531 15.617188 19.519531 L 19.925781 19.519531 C 20.039062 19.519531 20.125 19.609375 20.125 19.714844 L 20.125 20.945312 C 20.125 21.058594 20.03125 21.144531 19.925781 21.144531 L 15.617188 21.144531 C 15.503906 21.144531 15.417969 21.050781 15.417969 20.945312 Z M 13.289062 19.46875 C 13.753906 19.46875 14.125 19.84375 14.125 20.304688 C 14.125 20.769531 13.753906 21.144531 13.289062 21.144531 C 12.824219 21.144531 12.453125 20.769531 12.453125 20.304688 C 12.453125 19.84375 12.832031 19.46875 13.289062 19.46875 Z M 10.546875 19.46875 C 11.011719 19.46875 11.382812 19.84375 11.382812 20.304688 C 11.382812 20.769531 11.011719 21.144531 10.546875 21.144531 C 10.082031 21.144531 9.710938 20.769531 9.710938 20.304688 C 9.710938 19.84375 10.082031 19.46875 10.546875 19.46875 Z M 27.230469 32.246094 C 27.230469 37.011719 23.351562 40.894531 18.582031 40.894531 C 13.816406 40.894531 9.933594 37.011719 9.933594 32.246094 C 9.933594 27.476562 13.816406 23.597656 18.582031 23.597656 L 19.265625 23.597656 L 19.265625 31.5625 L 27.230469 31.5625 Z M 20.898438 29.523438 L 20.898438 22.867188 C 24.574219 22.867188 27.554688 25.847656 27.554688 29.523438 Z M 47.164062 39.992188 L 37.273438 39.992188 C 36.894531 39.992188 36.589844 39.691406 36.589844 39.3125 C 36.589844 38.933594 36.894531 38.628906 37.273438 38.628906 L 47.164062 38.628906 C 47.546875 38.628906 47.847656 38.933594 47.847656 39.3125 C 47.847656 39.683594 47.546875 39.992188 47.164062 39.992188 Z M 47.164062 34.839844 L 36.929688 34.839844 C 36.546875 34.839844 36.246094 34.539062 36.246094 34.15625 C 36.246094 33.777344 36.546875 33.476562 36.929688 33.476562 L 47.164062 33.476562 C 47.546875 33.476562 47.847656 33.777344 47.847656 34.15625 C 47.847656 34.539062 47.546875 34.839844 47.164062 34.839844 Z M 47.164062 29.679688 L 32.429688 29.679688 C 32.046875 29.679688 31.746094 29.375 31.746094 28.996094 C 31.746094 28.617188 32.046875 28.316406 32.429688 28.316406 L 47.171875 28.316406 C 47.550781 28.316406 47.855469 28.617188 47.855469 28.996094 C 47.855469 29.375 47.546875 29.679688 47.164062 29.679688 Z M 47.164062 24.523438 L 32.429688 24.523438 C 32.046875 24.523438 31.746094 24.222656 31.746094 23.84375 C 31.746094 23.464844 32.046875 23.160156 32.429688 23.160156 L 47.171875 23.160156 C 47.550781 23.160156 47.855469 23.464844 47.855469 23.84375 C 47.855469 24.222656 47.546875 24.523438 47.164062 24.523438 Z M 47.164062 24.523438 "/>
<path style=" stroke:none;fill-rule:nonzero;fill:rgb(100%,100%,100%);fill-opacity:1;" d="M 17.902344 24.996094 C 14.203125 25.339844 11.300781 28.460938 11.300781 32.246094 C 11.300781 36.261719 14.570312 39.53125 18.582031 39.53125 C 22.367188 39.53125 25.488281 36.625 25.832031 32.925781 L 17.902344 32.925781 Z M 17.902344 24.996094 "/>
<path style=" stroke:none;fill-rule:nonzero;fill:rgb(0%,35.686275%,100%);fill-opacity:1;" d="M 19.265625 23.597656 L 18.582031 23.597656 C 13.816406 23.597656 9.933594 27.476562 9.933594 32.246094 C 9.933594 37.011719 13.816406 40.894531 18.582031 40.894531 C 23.351562 40.894531 27.230469 37.011719 27.230469 32.246094 L 27.230469 31.5625 L 19.265625 31.5625 Z M 25.832031 32.933594 C 25.488281 36.632812 22.367188 39.535156 18.582031 39.535156 C 14.570312 39.535156 11.300781 36.265625 11.300781 32.253906 C 11.300781 28.46875 14.203125 25.347656 17.902344 25.003906 L 17.902344 32.933594 Z M 25.832031 32.933594 "/>
<path style=" stroke:none;fill-rule:nonzero;fill:rgb(0%,35.686275%,100%);fill-opacity:1;" d="M 20.898438 22.867188 L 20.898438 29.523438 L 27.554688 29.523438 C 27.554688 25.847656 24.574219 22.867188 20.898438 22.867188 Z M 20.898438 22.867188 "/>
<path style=" stroke:none;fill-rule:nonzero;fill:rgb(100%,100%,100%);fill-opacity:1;" d="M 9.710938 20.304688 C 9.710938 20.769531 10.085938 21.144531 10.546875 21.144531 C 11.007812 21.144531 11.382812 20.769531 11.382812 20.304688 C 11.382812 19.84375 11.007812 19.46875 10.546875 19.46875 C 10.085938 19.46875 9.710938 19.84375 9.710938 20.304688 Z M 9.710938 20.304688 "/>
<path style=" stroke:none;fill-rule:nonzero;fill:rgb(100%,100%,100%);fill-opacity:1;" d="M 12.453125 20.304688 C 12.453125 20.769531 12.828125 21.144531 13.289062 21.144531 C 13.75 21.144531 14.125 20.769531 14.125 20.304688 C 14.125 19.84375 13.75 19.46875 13.289062 19.46875 C 12.828125 19.46875 12.453125 19.84375 12.453125 20.304688 Z M 12.453125 20.304688 "/>
<path style=" stroke:none;fill-rule:nonzero;fill:rgb(100%,100%,100%);fill-opacity:1;" d="M 15.617188 21.144531 L 19.925781 21.144531 C 20.039062 21.144531 20.125 21.050781 20.125 20.945312 L 20.125 19.714844 C 20.125 19.601562 20.03125 19.519531 19.925781 19.519531 L 15.617188 19.519531 C 15.503906 19.519531 15.417969 19.609375 15.417969 19.714844 L 15.417969 20.945312 C 15.417969 21.058594 15.511719 21.144531 15.617188 21.144531 Z M 15.617188 21.144531 "/>
<path style=" stroke:none;fill-rule:nonzero;fill:rgb(0%,35.686275%,100%);fill-opacity:1;" d="M 64.1875 51.503906 C 60.882812 51.503906 58.121094 53.859375 57.488281 56.972656 L 49.351562 56.972656 C 48.53125 56.972656 47.933594 56.8125 47.722656 56.53125 C 47.582031 56.339844 47.582031 56.039062 47.582031 55.898438 L 47.582031 52.304688 L 55.308594 52.304688 C 57.945312 52.304688 60.082031 50.160156 60.082031 47.53125 L 60.082031 16.539062 C 60.082031 13.902344 57.9375 11.761719 55.308594 11.761719 L 5.667969 11.761719 C 3.03125 11.761719 0.894531 13.90625 0.894531 16.539062 L 0.894531 47.523438 C 0.894531 50.160156 3.039062 52.296875 5.667969 52.296875 L 44.84375 52.296875 L 44.84375 55.898438 C 44.84375 56.234375 44.84375 57.253906 45.542969 58.175781 C 46.308594 59.1875 47.585938 59.703125 49.351562 59.703125 L 71.023438 59.703125 L 71.023438 58.339844 C 71.023438 54.570312 67.957031 51.503906 64.1875 51.503906 Z M 5.667969 49.578125 C 4.535156 49.578125 3.621094 48.65625 3.621094 47.53125 L 3.621094 16.539062 C 3.621094 15.40625 4.542969 14.492188 5.667969 14.492188 L 55.300781 14.492188 C 56.433594 14.492188 57.347656 15.414062 57.347656 16.539062 L 57.347656 47.523438 C 57.347656 48.65625 56.425781 49.570312 55.300781 49.570312 L 5.667969 49.570312 Z M 64.1875 56.972656 L 60.3125 56.972656 C 60.875 55.378906 62.402344 54.230469 64.1875 54.230469 C 65.972656 54.230469 67.5 55.378906 68.0625 56.972656 Z M 64.1875 56.972656 "/>
<path style=" stroke:none;fill-rule:nonzero;fill:rgb(0%,35.686275%,100%);fill-opacity:1;" d="M 47.164062 23.160156 L 32.429688 23.160156 C 32.046875 23.160156 31.746094 23.464844 31.746094 23.84375 C 31.746094 24.222656 32.046875 24.523438 32.429688 24.523438 L 47.171875 24.523438 C 47.550781 24.523438 47.855469 24.222656 47.855469 23.84375 C 47.855469 23.464844 47.546875 23.160156 47.164062 23.160156 Z M 47.164062 23.160156 "/>
<path style=" stroke:none;fill-rule:nonzero;fill:rgb(2.352941%,95.294118%,100%);fill-opacity:1;" d="M 47.164062 28.316406 L 32.429688 28.316406 C 32.046875 28.316406 31.746094 28.617188 31.746094 28.996094 C 31.746094 29.375 32.046875 29.679688 32.429688 29.679688 L 47.171875 29.679688 C 47.550781 29.679688 47.855469 29.375 47.855469 28.996094 C 47.855469 28.617188 47.546875 28.316406 47.164062 28.316406 Z M 47.164062 33.476562 L 36.929688 33.476562 C 36.546875 33.476562 36.246094 33.777344 36.246094 34.15625 C 36.246094 34.539062 36.546875 34.839844 36.929688 34.839844 L 47.164062 34.839844 C 47.546875 34.839844 47.847656 34.539062 47.847656 34.15625 C 47.847656 33.777344 47.546875 33.476562 47.164062 33.476562 Z M 47.164062 33.476562 "/>
<path style=" stroke:none;fill-rule:nonzero;fill:rgb(0%,35.686275%,100%);fill-opacity:1;" d="M 47.164062 38.628906 L 37.273438 38.628906 C 36.894531 38.628906 36.589844 38.933594 36.589844 39.3125 C 36.589844 39.691406 36.894531 39.992188 37.273438 39.992188 L 47.164062 39.992188 C 47.546875 39.992188 47.847656 39.691406 47.847656 39.3125 C 47.847656 38.933594 47.546875 38.628906 47.164062 38.628906 Z M 47.164062 38.628906 "/>
</g>
</svg>
