<svg xmlns="http://www.w3.org/2000/svg" xmlns:xlink="http://www.w3.org/1999/xlink" width="72" height="72" version="1.1" viewBox="0 0 72 72"><g id="surface1"><path style="stroke:none;fill-rule:nonzero;fill:#fff;fill-opacity:1" d="M 43.691406 11.058594 L 27.449219 11.058594 C 25.507812 11.058594 23.933594 12.636719 23.933594 14.574219 L 23.933594 56.671875 C 23.933594 58.613281 25.507812 60.1875 27.449219 60.1875 L 43.691406 60.1875 C 45.632812 60.1875 47.207031 58.613281 47.207031 56.671875 L 47.207031 14.574219 C 47.207031 12.636719 45.632812 11.058594 43.691406 11.058594 Z M 57.214844 15.441406 L 47.207031 15.441406 L 47.207031 57.101562 L 57.21875 57.101562 C 59.28125 57.101562 60.945312 55.527344 60.945312 53.585938 L 60.945312 18.957031 C 60.941406 17.015625 59.273438 15.441406 57.214844 15.441406 Z M 57.214844 15.441406"/><path style="stroke:none;fill-rule:nonzero;fill:#005bff;fill-opacity:1" d="M 10.460938 33.609375 C 10.847656 33.609375 11.164062 33.292969 11.164062 32.90625 L 11.164062 32.203125 C 11.164062 31.816406 10.847656 31.5 10.460938 31.5 C 10.074219 31.5 9.757812 31.816406 9.757812 32.203125 L 9.757812 32.90625 C 9.757812 33.292969 10.074219 33.609375 10.460938 33.609375 Z M 10.460938 37.125 C 10.847656 37.125 11.164062 36.808594 11.164062 36.421875 L 11.164062 35.71875 C 11.164062 35.332031 10.847656 35.015625 10.460938 35.015625 C 10.074219 35.015625 9.757812 35.332031 9.757812 35.71875 L 9.757812 36.421875 C 9.757812 36.808594 10.074219 37.125 10.460938 37.125 Z M 10.460938 44.15625 C 10.847656 44.15625 11.164062 43.839844 11.164062 43.453125 L 11.164062 42.75 C 11.164062 42.363281 10.847656 42.046875 10.460938 42.046875 C 10.074219 42.046875 9.757812 42.363281 9.757812 42.75 L 9.757812 43.453125 C 9.757812 43.839844 10.074219 44.15625 10.460938 44.15625 Z M 10.460938 40.640625 C 10.847656 40.640625 11.164062 40.324219 11.164062 39.9375 L 11.164062 39.234375 C 11.164062 38.847656 10.847656 38.53125 10.460938 38.53125 C 10.074219 38.53125 9.757812 38.847656 9.757812 39.234375 L 9.757812 39.9375 C 9.757812 40.324219 10.074219 40.640625 10.460938 40.640625 Z M 10.460938 23.0625 C 10.847656 23.0625 11.164062 22.746094 11.164062 22.359375 L 11.164062 21.65625 C 11.164062 21.269531 10.847656 20.953125 10.460938 20.953125 C 10.074219 20.953125 9.757812 21.269531 9.757812 21.65625 L 9.757812 22.359375 C 9.757812 22.746094 10.074219 23.0625 10.460938 23.0625 Z M 10.460938 26.578125 C 10.847656 26.578125 11.164062 26.261719 11.164062 25.875 L 11.164062 25.171875 C 11.164062 24.785156 10.847656 24.46875 10.460938 24.46875 C 10.074219 24.46875 9.757812 24.785156 9.757812 25.171875 L 9.757812 25.875 C 9.757812 26.261719 10.074219 26.578125 10.460938 26.578125 Z M 10.449219 19.546875 L 10.460938 19.546875 C 10.84375 19.546875 11.160156 19.238281 11.164062 18.859375 C 11.164062 18.675781 11.195312 18.484375 11.234375 18.308594 C 11.328125 17.929688 11.089844 17.550781 10.707031 17.464844 C 10.328125 17.375 9.949219 17.613281 9.863281 17.992188 C 9.800781 18.265625 9.765625 18.546875 9.757812 18.835938 C 9.753906 19.222656 10.0625 19.539062 10.449219 19.546875 Z M 10.460938 47.671875 C 10.847656 47.671875 11.164062 47.355469 11.164062 46.96875 L 11.164062 46.265625 C 11.164062 45.878906 10.847656 45.5625 10.460938 45.5625 C 10.074219 45.5625 9.757812 45.878906 9.757812 46.265625 L 9.757812 46.96875 C 9.757812 47.355469 10.074219 47.671875 10.460938 47.671875 Z M 10.460938 30.09375 C 10.847656 30.09375 11.164062 29.777344 11.164062 29.390625 L 11.164062 28.6875 C 11.164062 28.300781 10.847656 27.984375 10.460938 27.984375 C 10.074219 27.984375 9.757812 28.300781 9.757812 28.6875 L 9.757812 29.390625 C 9.757812 29.777344 10.074219 30.09375 10.460938 30.09375 Z M 10.460938 51.1875 C 10.847656 51.1875 11.164062 50.871094 11.164062 50.484375 L 11.164062 49.78125 C 11.164062 49.394531 10.847656 49.078125 10.460938 49.078125 C 10.074219 49.078125 9.757812 49.394531 9.757812 49.78125 L 9.757812 50.484375 C 9.757812 50.871094 10.074219 51.1875 10.460938 51.1875 Z M 16.296875 14.6875 L 15.59375 14.6875 C 15.207031 14.6875 14.890625 15.003906 14.890625 15.390625 C 14.890625 15.777344 15.207031 16.09375 15.59375 16.09375 L 16.296875 16.09375 C 16.683594 16.09375 17 15.777344 17 15.390625 C 17 15.003906 16.683594 14.6875 16.296875 14.6875 Z M 19.511719 56.347656 L 18.808594 56.347656 C 18.421875 56.347656 18.105469 56.664062 18.105469 57.050781 C 18.105469 57.4375 18.421875 57.753906 18.808594 57.753906 L 19.511719 57.753906 C 19.898438 57.753906 20.214844 57.4375 20.214844 57.050781 C 20.214844 56.664062 19.898438 56.347656 19.511719 56.347656 Z M 15.996094 56.347656 L 15.292969 56.347656 C 14.90625 56.347656 14.589844 56.664062 14.589844 57.050781 C 14.589844 57.4375 14.90625 57.753906 15.292969 57.753906 L 15.996094 57.753906 C 16.382812 57.753906 16.699219 57.4375 16.699219 57.050781 C 16.699219 56.664062 16.382812 56.347656 15.996094 56.347656 Z M 12.566406 14.984375 C 12.304688 15.082031 12.050781 15.203125 11.820312 15.347656 C 11.488281 15.554688 11.382812 15.980469 11.582031 16.3125 C 11.714844 16.53125 11.945312 16.648438 12.183594 16.648438 C 12.3125 16.648438 12.4375 16.613281 12.550781 16.550781 C 12.710938 16.453125 12.886719 16.367188 13.0625 16.296875 C 13.429688 16.164062 13.613281 15.757812 13.472656 15.390625 C 13.332031 15.03125 12.921875 14.851562 12.566406 14.984375 Z M 11.164062 53.535156 L 11.164062 53.296875 C 11.164062 52.910156 10.847656 52.59375 10.460938 52.59375 C 10.074219 52.59375 9.757812 52.910156 9.757812 53.296875 L 9.757812 53.535156 C 9.757812 53.726562 9.773438 53.914062 9.800781 54.097656 C 9.851562 54.449219 10.152344 54.703125 10.496094 54.703125 C 10.53125 54.703125 10.5625 54.703125 10.597656 54.695312 C 10.984375 54.640625 11.25 54.289062 11.195312 53.902344 C 11.171875 53.78125 11.164062 53.65625 11.164062 53.535156 Z M 12.832031 56.054688 C 12.65625 55.96875 12.496094 55.878906 12.339844 55.765625 C 12.023438 55.539062 11.585938 55.609375 11.355469 55.925781 C 11.128906 56.242188 11.199219 56.679688 11.515625 56.910156 C 11.742188 57.074219 11.980469 57.214844 12.234375 57.332031 C 12.332031 57.375 12.429688 57.394531 12.53125 57.394531 C 12.796875 57.394531 13.050781 57.25 13.167969 56.988281 C 13.332031 56.636719 13.183594 56.214844 12.832031 56.054688 Z M 57.214844 13.984375 L 48.578125 13.984375 C 48.304688 11.523438 46.214844 9.605469 43.683594 9.605469 L 27.441406 9.605469 C 24.730469 9.605469 22.519531 11.8125 22.519531 14.527344 L 22.519531 14.695312 C 22.191406 14.738281 21.9375 15.011719 21.917969 15.347656 L 19.222656 12.707031 C 18.90625 12.394531 18.359375 12.613281 18.359375 13.050781 L 18.332031 17.726562 C 18.332031 18.160156 18.871094 18.386719 19.1875 18.078125 L 21.910156 15.460938 C 21.945312 15.785156 22.191406 16.039062 22.507812 16.085938 L 22.507812 56.347656 L 22.304688 56.347656 C 21.917969 56.347656 21.601562 56.664062 21.601562 57.050781 C 21.601562 57.4375 21.917969 57.753906 22.304688 57.753906 L 22.640625 57.753906 C 23.152344 59.925781 25.101562 61.550781 27.429688 61.550781 L 43.671875 61.550781 C 45.738281 61.550781 47.511719 60.273438 48.242188 58.457031 L 57.199219 58.457031 C 60.027344 58.457031 62.332031 56.25 62.332031 53.535156 L 62.332031 18.90625 C 62.347656 16.191406 60.046875 13.984375 57.214844 13.984375 Z M 45.800781 56.628906 C 45.800781 57.789062 44.851562 58.738281 43.691406 58.738281 L 27.449219 58.738281 C 26.289062 58.738281 25.339844 57.789062 25.339844 56.628906 L 25.339844 14.535156 C 25.339844 13.375 26.289062 12.425781 27.449219 12.425781 L 43.691406 12.425781 C 44.851562 12.425781 45.800781 13.375 45.800781 14.535156 Z M 59.535156 53.535156 C 59.535156 54.695312 58.492188 55.644531 57.214844 55.644531 L 48.613281 55.644531 L 48.613281 16.796875 L 57.21875 16.796875 C 58.5 16.796875 59.539062 17.746094 59.539062 18.90625 L 59.539062 53.535156 Z M 59.535156 53.535156"/><path style="stroke:none;fill-rule:nonzero;fill:#06f3ff;fill-opacity:1" d="M 53.03125 53.886719 L 51.417969 53.886719 C 51.03125 53.886719 50.714844 53.570312 50.714844 53.183594 C 50.714844 52.796875 51.03125 52.480469 51.417969 52.480469 L 53.03125 52.480469 C 54.695312 52.480469 56.054688 51.222656 56.054688 49.667969 L 56.054688 32.921875 C 56.054688 32.535156 56.371094 32.21875 56.757812 32.21875 C 57.144531 32.21875 57.460938 32.535156 57.460938 32.921875 L 57.460938 49.667969 C 57.460938 51.996094 55.46875 53.886719 53.03125 53.886719 Z M 53.03125 53.886719"/><path style="stroke:none;fill-rule:nonzero;fill:#005bff;fill-opacity:1" d="M 40.605469 20.804688 L 30.53125 20.804688 C 30.144531 20.804688 29.828125 20.488281 29.828125 20.101562 C 29.828125 19.714844 30.144531 19.398438 30.53125 19.398438 L 40.597656 19.398438 C 40.984375 19.398438 41.300781 19.714844 41.300781 20.101562 C 41.300781 20.488281 40.992188 20.804688 40.605469 20.804688 Z M 40.605469 20.804688"/><path style="stroke:none;fill-rule:nonzero;fill:#005bff;fill-opacity:1" d="M 40.605469 25.339844 L 30.53125 25.339844 C 30.144531 25.339844 29.828125 25.023438 29.828125 24.636719 C 29.828125 24.25 30.144531 23.933594 30.53125 23.933594 L 40.597656 23.933594 C 40.984375 23.933594 41.300781 24.25 41.300781 24.636719 C 41.300781 25.023438 40.992188 25.339844 40.605469 25.339844 Z M 40.605469 25.339844"/><path style="stroke:none;fill-rule:nonzero;fill:#005bff;fill-opacity:1" d="M 40.605469 29.875 L 30.53125 29.875 C 30.144531 29.875 29.828125 29.558594 29.828125 29.171875 C 29.828125 28.785156 30.144531 28.46875 30.53125 28.46875 L 40.597656 28.46875 C 40.984375 28.46875 41.300781 28.785156 41.300781 29.171875 C 41.300781 29.558594 40.992188 29.875 40.605469 29.875 Z M 40.605469 29.875"/><path style="stroke:none;fill-rule:nonzero;fill:#e6e6e6;fill-opacity:1" d="M 35.570312 40.472656 C 32.808594 40.472656 30.558594 42.722656 30.558594 45.484375 C 30.558594 48.25 32.808594 50.5 35.570312 50.5 C 38.335938 50.5 40.585938 48.25 40.585938 45.484375 C 40.585938 42.722656 38.335938 40.472656 35.570312 40.472656 Z M 35.570312 40.472656"/><path style="stroke:none;fill-rule:nonzero;fill:#005bff;fill-opacity:1" d="M 35.570312 39.066406 C 32.027344 39.066406 29.152344 41.949219 29.152344 45.484375 C 29.152344 49.023438 32.035156 51.90625 35.570312 51.90625 C 39.109375 51.90625 41.992188 49.023438 41.992188 45.484375 C 41.992188 41.949219 39.109375 39.066406 35.570312 39.066406 Z M 35.570312 50.5 C 32.808594 50.5 30.558594 48.25 30.558594 45.484375 C 30.558594 42.722656 32.808594 40.472656 35.570312 40.472656 C 38.335938 40.472656 40.585938 42.722656 40.585938 45.484375 C 40.585938 48.25 38.335938 50.5 35.570312 50.5 Z M 35.570312 50.5"/></g></svg>