<?xml version="1.0" encoding="UTF-8"?>
<svg xmlns="http://www.w3.org/2000/svg" xmlns:xlink="http://www.w3.org/1999/xlink" width="72px" height="72px" viewBox="0 0 72 72" version="1.1">
<g id="surface1">
<path style=" stroke:none;fill-rule:nonzero;fill:rgb(100%,100%,100%);fill-opacity:1;" d="M 61.753906 13.5625 L 10.246094 13.5625 C 9.085938 13.5625 8.136719 14.511719 8.136719 15.671875 L 8.136719 49.640625 C 8.136719 50.800781 9.085938 51.75 10.246094 51.75 L 61.753906 51.75 C 62.914062 51.75 63.863281 50.800781 63.863281 49.640625 L 63.863281 15.671875 C 63.863281 14.511719 62.914062 13.5625 61.753906 13.5625 Z M 61.753906 13.5625 "/>
<path style=" stroke:none;fill-rule:nonzero;fill:rgb(90.196078%,90.196078%,90.196078%);fill-opacity:1;" d="M 10.246094 51.75 L 61.753906 51.75 C 62.914062 51.75 63.863281 50.800781 63.863281 49.640625 L 63.863281 48.085938 L 8.136719 48.085938 L 8.136719 49.640625 C 8.136719 50.808594 9.085938 51.75 10.246094 51.75 Z M 10.246094 51.75 "/>
<path style=" stroke:none;fill-rule:nonzero;fill:rgb(0%,35.686275%,100%);fill-opacity:1;" d="M 61.753906 10.75 L 10.246094 10.75 C 7.53125 10.75 5.324219 12.957031 5.324219 15.671875 L 5.324219 49.640625 C 5.324219 52.355469 7.53125 54.5625 10.246094 54.5625 L 61.753906 54.5625 C 64.46875 54.5625 66.675781 52.355469 66.675781 49.640625 L 66.675781 15.671875 C 66.675781 12.957031 64.46875 10.75 61.753906 10.75 Z M 63.863281 48.085938 L 63.863281 49.640625 C 63.863281 50.800781 62.914062 51.75 61.753906 51.75 L 10.246094 51.75 C 9.085938 51.75 8.136719 50.800781 8.136719 49.640625 L 8.136719 15.671875 C 8.136719 14.511719 9.085938 13.5625 10.246094 13.5625 L 61.753906 13.5625 C 62.914062 13.5625 63.863281 14.511719 63.863281 15.671875 Z M 47.671875 61.25 L 24.328125 61.25 C 23.554688 61.25 22.921875 60.617188 22.921875 59.84375 C 22.921875 59.070312 23.554688 58.4375 24.328125 58.4375 L 47.671875 58.4375 C 48.445312 58.4375 49.078125 59.070312 49.078125 59.84375 C 49.078125 60.617188 48.445312 61.25 47.671875 61.25 Z M 47.671875 61.25 "/>
<path style=" stroke:none;fill-rule:nonzero;fill:rgb(2.352941%,95.294118%,100%);fill-opacity:1;" d="M 8.9375 46.597656 C 8.746094 46.597656 8.558594 46.519531 8.421875 46.371094 C 8.164062 46.082031 8.175781 45.640625 8.464844 45.378906 L 25.09375 29.9375 L 32.554688 38.101562 L 50.757812 17.664062 L 63.675781 31.464844 C 63.941406 31.746094 63.929688 32.195312 63.648438 32.457031 C 63.367188 32.722656 62.921875 32.710938 62.65625 32.429688 L 50.785156 19.742188 L 32.574219 40.199219 L 25.011719 31.921875 L 9.414062 46.40625 C 9.273438 46.53125 9.105469 46.597656 8.9375 46.597656 Z M 8.9375 46.597656 "/>
<path style=" stroke:none;fill-rule:nonzero;fill:rgb(84.313725%,90.588235%,100%);fill-opacity:1;" d="M 10.996094 38.101562 C 10.996094 41.316406 13.601562 43.925781 16.8125 43.925781 C 20.023438 43.925781 22.625 41.316406 22.625 38.101562 C 22.625 34.886719 20.023438 32.28125 16.8125 32.28125 C 13.601562 32.28125 10.996094 34.886719 10.996094 38.101562 Z M 10.996094 38.101562 "/>
<path style=" stroke:none;fill-rule:nonzero;fill:rgb(70.980392%,81.176471%,95.686275%);fill-opacity:1;" d="M 12.640625 38.101562 C 12.640625 40.40625 14.507812 42.273438 16.8125 42.273438 C 19.113281 42.273438 20.980469 40.40625 20.980469 38.101562 C 20.980469 35.800781 19.113281 33.933594 16.8125 33.933594 C 14.507812 33.933594 12.640625 35.800781 12.640625 38.101562 Z M 12.640625 38.101562 "/>
<path style=" stroke:none;fill-rule:nonzero;fill:rgb(0%,35.686275%,100%);fill-opacity:1;" d="M 14.6875 38.101562 C 14.6875 39.277344 15.640625 40.234375 16.8125 40.234375 C 17.984375 40.234375 18.933594 39.277344 18.933594 38.101562 C 18.933594 36.925781 17.984375 35.972656 16.8125 35.972656 C 15.640625 35.972656 14.6875 36.925781 14.6875 38.101562 Z M 14.6875 38.101562 "/>
<path style=" stroke:none;fill-rule:nonzero;fill:rgb(84.313725%,90.588235%,100%);fill-opacity:1;" d="M 40.84375 23.195312 C 40.84375 26.410156 43.449219 29.019531 46.660156 29.019531 C 49.871094 29.019531 52.472656 26.410156 52.472656 23.195312 C 52.472656 19.980469 49.871094 17.375 46.660156 17.375 C 43.449219 17.375 40.84375 19.980469 40.84375 23.195312 Z M 40.84375 23.195312 "/>
<path style=" stroke:none;fill-rule:nonzero;fill:rgb(70.980392%,81.176471%,95.686275%);fill-opacity:1;" d="M 42.488281 23.195312 C 42.488281 25.5 44.355469 27.367188 46.660156 27.367188 C 48.960938 27.367188 50.828125 25.5 50.828125 23.195312 C 50.828125 20.894531 48.960938 19.027344 46.660156 19.027344 C 44.355469 19.027344 42.488281 20.894531 42.488281 23.195312 Z M 42.488281 23.195312 "/>
<path style=" stroke:none;fill-rule:nonzero;fill:rgb(0%,35.686275%,100%);fill-opacity:1;" d="M 44.535156 23.195312 C 44.535156 24.371094 45.488281 25.328125 46.660156 25.328125 C 47.832031 25.328125 48.78125 24.371094 48.78125 23.195312 C 48.78125 22.019531 47.832031 21.066406 46.660156 21.066406 C 45.488281 21.066406 44.535156 22.019531 44.535156 23.195312 Z M 44.535156 23.195312 "/>
<path style=" stroke:none;fill-rule:nonzero;fill:rgb(84.313725%,90.588235%,100%);fill-opacity:1;" d="M 50.574219 37.941406 C 50.574219 39.742188 52.035156 41.203125 53.832031 41.203125 C 55.628906 41.203125 57.085938 39.742188 57.085938 37.941406 C 57.085938 36.140625 55.628906 34.679688 53.832031 34.679688 C 52.035156 34.679688 50.574219 36.140625 50.574219 37.941406 Z M 50.574219 37.941406 "/>
<path style=" stroke:none;fill-rule:nonzero;fill:rgb(70.980392%,81.176471%,95.686275%);fill-opacity:1;" d="M 51.496094 37.941406 C 51.496094 39.230469 52.542969 40.273438 53.832031 40.273438 C 55.121094 40.273438 56.164062 39.230469 56.164062 37.941406 C 56.164062 36.652344 55.121094 35.605469 53.832031 35.605469 C 52.542969 35.605469 51.496094 36.652344 51.496094 37.941406 Z M 51.496094 37.941406 "/>
<path style=" stroke:none;fill-rule:nonzero;fill:rgb(0%,35.686275%,100%);fill-opacity:1;" d="M 52.644531 37.941406 C 52.644531 38.601562 53.175781 39.136719 53.832031 39.136719 C 54.488281 39.136719 55.019531 38.601562 55.019531 37.941406 C 55.019531 37.28125 54.488281 36.746094 53.832031 36.746094 C 53.175781 36.746094 52.644531 37.28125 52.644531 37.941406 Z M 52.644531 37.941406 "/>
<path style=" stroke:none;fill-rule:nonzero;fill:rgb(100%,100%,100%);fill-opacity:1;" d="M 30.710938 50.632812 L 19.351562 50.632812 C 19 50.632812 18.71875 50.351562 18.71875 50 C 18.71875 49.648438 19 49.367188 19.351562 49.367188 L 30.710938 49.367188 C 31.0625 49.367188 31.34375 49.648438 31.34375 50 C 31.34375 50.34375 31.058594 50.632812 30.710938 50.632812 Z M 15.511719 50.632812 L 13.648438 50.632812 C 13.296875 50.632812 13.015625 50.351562 13.015625 50 C 13.015625 49.648438 13.296875 49.367188 13.648438 49.367188 L 15.511719 49.367188 C 15.863281 49.367188 16.144531 49.648438 16.144531 50 C 16.144531 50.34375 15.855469 50.632812 15.511719 50.632812 Z M 15.511719 50.632812 "/>
</g>
</svg>
