<?xml version="1.0" encoding="UTF-8"?>
<svg xmlns="http://www.w3.org/2000/svg" xmlns:xlink="http://www.w3.org/1999/xlink" width="72px" height="72px" viewBox="0 0 72 72" version="1.1">
<g id="surface1">
<path style=" stroke:none;fill-rule:nonzero;fill:rgb(100%,100%,100%);fill-opacity:1;" d="M 30.402344 31.886719 L 29.207031 35.171875 L 31.625 35.171875 Z M 30.402344 31.886719 "/>
<path style=" stroke:none;fill-rule:nonzero;fill:rgb(100%,100%,100%);fill-opacity:1;" d="M 50.996094 18.261719 L 21.953125 18.261719 C 20.792969 18.261719 19.84375 19.210938 19.84375 20.371094 L 19.84375 49.414062 C 19.84375 50.574219 20.792969 51.523438 21.953125 51.523438 L 50.996094 51.523438 C 52.15625 51.523438 53.105469 50.574219 53.105469 49.414062 L 53.105469 20.371094 C 53.105469 19.203125 52.15625 18.261719 50.996094 18.261719 Z M 44.050781 29.828125 L 45.835938 29.828125 L 45.835938 38.671875 L 44.050781 38.671875 Z M 35.859375 29.828125 L 38.726562 29.828125 C 39.816406 29.828125 40.519531 29.867188 40.851562 29.960938 C 41.359375 30.09375 41.78125 30.382812 42.125 30.824219 C 42.46875 31.269531 42.636719 31.84375 42.636719 32.546875 C 42.636719 33.089844 42.539062 33.546875 42.34375 33.917969 C 42.144531 34.292969 41.890625 34.578125 41.589844 34.789062 C 41.289062 35 40.976562 35.140625 40.660156 35.210938 C 40.234375 35.296875 39.621094 35.339844 38.804688 35.339844 L 37.636719 35.339844 L 37.636719 38.671875 L 35.859375 38.671875 Z M 29.480469 29.828125 L 31.375 29.828125 L 34.910156 38.671875 L 32.96875 38.671875 L 32.195312 36.660156 L 28.660156 36.660156 L 27.929688 38.671875 L 26.03125 38.671875 Z M 45.589844 49.042969 L 24.792969 49.042969 C 23.429688 49.042969 22.324219 47.9375 22.324219 46.574219 L 22.324219 25.832031 C 22.324219 25.445312 22.640625 25.128906 23.027344 25.128906 C 23.414062 25.128906 23.730469 25.445312 23.730469 25.832031 L 23.730469 46.574219 C 23.730469 47.160156 24.207031 47.636719 24.792969 47.636719 L 45.589844 47.636719 C 45.976562 47.636719 46.292969 47.953125 46.292969 48.339844 C 46.292969 48.726562 45.984375 49.042969 45.589844 49.042969 Z M 45.589844 49.042969 "/>
<path style=" stroke:none;fill-rule:nonzero;fill:rgb(100%,100%,100%);fill-opacity:1;" d="M 40.035156 33.695312 C 40.273438 33.601562 40.457031 33.453125 40.589844 33.257812 C 40.726562 33.0625 40.796875 32.828125 40.796875 32.570312 C 40.796875 32.246094 40.703125 31.976562 40.515625 31.773438 C 40.324219 31.5625 40.085938 31.4375 39.796875 31.378906 C 39.585938 31.339844 39.15625 31.316406 38.511719 31.316406 L 37.644531 31.316406 L 37.644531 33.828125 L 38.621094 33.828125 C 39.324219 33.835938 39.796875 33.785156 40.035156 33.695312 Z M 40.035156 33.695312 "/>
<path style=" stroke:none;fill-rule:nonzero;fill:rgb(2.352941%,95.294118%,100%);fill-opacity:1;" d="M 45.589844 47.636719 L 24.792969 47.636719 C 24.207031 47.636719 23.730469 47.160156 23.730469 46.574219 L 23.730469 25.832031 C 23.730469 25.445312 23.414062 25.128906 23.027344 25.128906 C 22.640625 25.128906 22.324219 25.445312 22.324219 25.832031 L 22.324219 46.574219 C 22.324219 47.9375 23.429688 49.042969 24.792969 49.042969 L 45.589844 49.042969 C 45.976562 49.042969 46.292969 48.726562 46.292969 48.339844 C 46.292969 47.953125 45.984375 47.636719 45.589844 47.636719 Z M 45.589844 47.636719 "/>
<path style=" stroke:none;fill-rule:nonzero;fill:rgb(0%,35.686275%,100%);fill-opacity:1;" d="M 60.820312 27.175781 C 61.59375 27.175781 62.226562 26.542969 62.226562 25.769531 C 62.226562 24.996094 61.59375 24.363281 60.820312 24.363281 L 55.917969 24.363281 L 55.917969 20.371094 C 55.917969 17.65625 53.710938 15.449219 50.996094 15.449219 L 49.042969 15.449219 L 49.042969 10.714844 C 49.042969 9.941406 48.410156 9.308594 47.636719 9.308594 C 46.863281 9.308594 46.230469 9.941406 46.230469 10.714844 L 46.230469 15.449219 L 42.960938 15.449219 L 42.960938 10.714844 C 42.960938 9.941406 42.328125 9.308594 41.554688 9.308594 C 40.78125 9.308594 40.148438 9.941406 40.148438 10.714844 L 40.148438 15.449219 L 36.878906 15.449219 L 36.878906 10.714844 C 36.878906 9.941406 36.246094 9.308594 35.472656 9.308594 C 34.699219 9.308594 34.066406 9.941406 34.066406 10.714844 L 34.066406 15.449219 L 30.796875 15.449219 L 30.796875 10.714844 C 30.796875 9.941406 30.164062 9.308594 29.390625 9.308594 C 28.617188 9.308594 27.984375 9.941406 27.984375 10.714844 L 27.984375 15.449219 L 21.953125 15.449219 C 19.238281 15.449219 17.03125 17.65625 17.03125 20.371094 L 17.03125 24.363281 L 12.128906 24.363281 C 11.355469 24.363281 10.722656 24.996094 10.722656 25.769531 C 10.722656 26.542969 11.355469 27.175781 12.128906 27.175781 L 17.03125 27.175781 L 17.03125 30.445312 L 12.128906 30.445312 C 11.355469 30.445312 10.722656 31.078125 10.722656 31.851562 C 10.722656 32.625 11.355469 33.257812 12.128906 33.257812 L 17.03125 33.257812 L 17.03125 36.527344 L 12.128906 36.527344 C 11.355469 36.527344 10.722656 37.160156 10.722656 37.933594 C 10.722656 38.707031 11.355469 39.339844 12.128906 39.339844 L 17.03125 39.339844 L 17.03125 42.609375 L 12.128906 42.609375 C 11.355469 42.609375 10.722656 43.242188 10.722656 44.015625 C 10.722656 44.789062 11.355469 45.421875 12.128906 45.421875 L 17.03125 45.421875 L 17.03125 49.414062 C 17.03125 52.128906 19.238281 54.335938 21.953125 54.335938 L 24.117188 54.335938 L 24.117188 59.433594 C 24.117188 60.207031 24.75 60.839844 25.523438 60.839844 C 26.296875 60.839844 26.929688 60.207031 26.929688 59.433594 L 26.929688 54.335938 L 30.199219 54.335938 L 30.199219 59.433594 C 30.199219 60.207031 30.832031 60.839844 31.605469 60.839844 C 32.378906 60.839844 33.011719 60.207031 33.011719 59.433594 L 33.011719 54.335938 L 36.28125 54.335938 L 36.28125 59.433594 C 36.28125 60.207031 36.914062 60.839844 37.6875 60.839844 C 38.460938 60.839844 39.09375 60.207031 39.09375 59.433594 L 39.09375 54.335938 L 42.363281 54.335938 L 42.363281 59.433594 C 42.363281 60.207031 42.996094 60.839844 43.769531 60.839844 C 44.542969 60.839844 45.175781 60.207031 45.175781 59.433594 L 45.175781 54.335938 L 50.996094 54.335938 C 53.710938 54.335938 55.917969 52.128906 55.917969 49.414062 L 55.917969 45.421875 L 60.820312 45.421875 C 61.59375 45.421875 62.226562 44.789062 62.226562 44.015625 C 62.226562 43.242188 61.59375 42.609375 60.820312 42.609375 L 55.917969 42.609375 L 55.917969 39.339844 L 60.820312 39.339844 C 61.59375 39.339844 62.226562 38.707031 62.226562 37.933594 C 62.226562 37.160156 61.59375 36.527344 60.820312 36.527344 L 55.917969 36.527344 L 55.917969 33.257812 L 60.820312 33.257812 C 61.59375 33.257812 62.226562 32.625 62.226562 31.851562 C 62.226562 31.078125 61.59375 30.445312 60.820312 30.445312 L 55.917969 30.445312 L 55.917969 27.175781 Z M 53.105469 49.410156 C 53.105469 50.570312 52.15625 51.519531 50.996094 51.519531 L 21.953125 51.519531 C 20.792969 51.519531 19.84375 50.570312 19.84375 49.410156 L 19.84375 20.371094 C 19.84375 19.210938 20.792969 18.261719 21.953125 18.261719 L 50.996094 18.261719 C 52.15625 18.261719 53.105469 19.210938 53.105469 20.371094 Z M 53.105469 49.410156 "/>
<path style=" stroke:none;fill-rule:nonzero;fill:rgb(0%,35.686275%,100%);fill-opacity:1;" d="M 28.660156 36.660156 L 32.195312 36.660156 L 32.96875 38.671875 L 34.910156 38.671875 L 31.367188 29.828125 L 29.476562 29.828125 L 26.03125 38.671875 L 27.929688 38.671875 Z M 30.402344 31.886719 L 31.621094 35.171875 L 29.207031 35.171875 Z M 37.644531 35.339844 L 38.8125 35.339844 C 39.621094 35.339844 40.238281 35.296875 40.667969 35.210938 C 40.984375 35.140625 41.292969 35 41.597656 34.789062 C 41.898438 34.578125 42.152344 34.292969 42.347656 33.917969 C 42.546875 33.546875 42.644531 33.089844 42.644531 32.546875 C 42.644531 31.84375 42.476562 31.269531 42.132812 30.824219 C 41.785156 30.382812 41.363281 30.09375 40.859375 29.960938 C 40.527344 29.867188 39.816406 29.828125 38.734375 29.828125 L 35.859375 29.828125 L 35.859375 38.671875 L 37.644531 38.671875 Z M 37.644531 31.324219 L 38.511719 31.324219 C 39.15625 31.324219 39.578125 31.34375 39.796875 31.386719 C 40.085938 31.4375 40.324219 31.570312 40.515625 31.78125 C 40.703125 31.992188 40.796875 32.257812 40.796875 32.574219 C 40.796875 32.835938 40.726562 33.066406 40.589844 33.265625 C 40.457031 33.460938 40.269531 33.609375 40.035156 33.699219 C 39.796875 33.792969 39.324219 33.839844 38.621094 33.839844 L 37.644531 33.839844 Z M 44.050781 29.828125 L 45.835938 29.828125 L 45.835938 38.671875 L 44.050781 38.671875 Z M 44.050781 29.828125 "/>
</g>
</svg>
