<?xml version="1.0" encoding="UTF-8"?>
<svg xmlns="http://www.w3.org/2000/svg" xmlns:xlink="http://www.w3.org/1999/xlink" width="72px" height="72px" viewBox="0 0 72 72" version="1.1">
<g id="surface1">
<path style=" stroke:none;fill-rule:nonzero;fill:rgb(90.196078%,90.196078%,90.196078%);fill-opacity:1;" d="M 21.039062 35.746094 C 21.039062 43.933594 27.671875 50.570312 35.859375 50.570312 C 44.046875 50.570312 50.679688 43.933594 50.679688 35.746094 C 50.679688 27.5625 44.046875 20.925781 35.859375 20.925781 C 27.671875 20.925781 21.039062 27.5625 21.039062 35.746094 Z M 21.039062 35.746094 "/>
<path style=" stroke:none;fill-rule:nonzero;fill:rgb(100%,100%,100%);fill-opacity:1;" d="M 35.859375 25.550781 C 30.234375 25.550781 25.664062 30.128906 25.664062 35.746094 C 25.664062 41.363281 30.242188 45.941406 35.859375 45.941406 C 41.476562 45.941406 46.054688 41.363281 46.054688 35.746094 C 46.054688 30.128906 41.484375 25.550781 35.859375 25.550781 Z M 35.859375 25.550781 "/>
<path style=" stroke:none;fill-rule:nonzero;fill:rgb(2.352941%,95.294118%,100%);fill-opacity:1;" d="M 35.859375 24.144531 C 29.460938 24.144531 24.257812 29.347656 24.257812 35.746094 C 24.257812 42.144531 29.460938 47.347656 35.859375 47.347656 C 42.257812 47.347656 47.460938 42.144531 47.460938 35.746094 C 47.460938 29.347656 42.257812 24.144531 35.859375 24.144531 Z M 35.859375 45.949219 C 30.234375 45.949219 25.664062 41.371094 25.664062 35.753906 C 25.664062 30.136719 30.242188 25.558594 35.859375 25.558594 C 41.476562 25.558594 46.054688 30.136719 46.054688 35.753906 C 46.054688 41.371094 41.484375 45.949219 35.859375 45.949219 Z M 35.859375 45.949219 "/>
<path style=" stroke:none;fill-rule:nonzero;fill:rgb(0%,35.686275%,100%);fill-opacity:1;" d="M 55.925781 34.339844 L 53.4375 34.339844 C 53.105469 30.15625 51.328125 26.277344 48.324219 23.273438 C 45.324219 20.269531 41.429688 18.484375 37.238281 18.160156 L 37.238281 15.589844 C 37.238281 14.816406 36.605469 14.183594 35.832031 14.183594 C 35.058594 14.183594 34.425781 14.816406 34.425781 15.589844 L 34.425781 18.167969 C 30.253906 18.5 26.375 20.285156 23.386719 23.273438 C 20.390625 26.269531 18.605469 30.15625 18.273438 34.339844 L 15.890625 34.339844 C 15.117188 34.339844 14.484375 34.972656 14.484375 35.746094 C 14.484375 36.519531 15.117188 37.152344 15.890625 37.152344 L 18.28125 37.152344 C 18.613281 41.335938 20.390625 45.21875 23.394531 48.21875 C 26.382812 51.207031 30.261719 52.996094 34.433594 53.324219 L 34.433594 55.820312 C 34.433594 56.59375 35.066406 57.226562 35.839844 57.226562 C 36.613281 57.226562 37.246094 56.59375 37.246094 55.820312 L 37.246094 53.332031 C 41.433594 53.007812 45.332031 51.222656 48.332031 48.21875 C 51.328125 45.226562 53.113281 41.335938 53.445312 37.152344 L 55.933594 37.152344 C 56.707031 37.152344 57.339844 36.519531 57.339844 35.746094 C 57.339844 34.972656 56.707031 34.339844 55.925781 34.339844 Z M 37.246094 50.503906 L 37.246094 46.855469 C 37.246094 46.082031 36.613281 45.449219 35.839844 45.449219 C 35.066406 45.449219 34.433594 46.082031 34.433594 46.855469 L 34.433594 50.5 C 27.394531 49.824219 21.777344 44.199219 21.109375 37.152344 L 24.804688 37.152344 C 25.578125 37.152344 26.210938 36.519531 26.210938 35.746094 C 26.210938 34.972656 25.578125 34.339844 24.804688 34.339844 L 21.109375 34.339844 C 21.777344 27.296875 27.394531 21.671875 34.433594 20.996094 L 34.433594 24.53125 C 34.433594 25.304688 35.066406 25.9375 35.839844 25.9375 C 36.613281 25.9375 37.246094 25.304688 37.246094 24.53125 L 37.246094 20.996094 C 44.3125 21.648438 49.949219 27.289062 50.617188 34.347656 L 47.136719 34.347656 C 46.363281 34.347656 45.730469 34.980469 45.730469 35.753906 C 45.730469 36.527344 46.363281 37.160156 47.136719 37.160156 L 50.617188 37.160156 C 49.949219 44.21875 44.304688 49.851562 37.246094 50.503906 Z M 37.246094 50.503906 "/>
<path style=" stroke:none;fill-rule:nonzero;fill:rgb(0%,35.686275%,100%);fill-opacity:1;" d="M 61.902344 11.109375 C 61.902344 10.335938 61.269531 9.703125 60.496094 9.703125 L 35.859375 9.703125 C 32.34375 9.703125 28.933594 10.390625 25.71875 11.75 C 22.621094 13.0625 19.835938 14.941406 17.445312 17.332031 C 15.054688 19.722656 13.175781 22.507812 11.863281 25.609375 C 10.503906 28.820312 9.816406 32.230469 9.816406 35.746094 C 9.816406 36.519531 10.449219 37.152344 11.222656 37.152344 C 11.996094 37.152344 12.628906 36.519531 12.628906 35.746094 C 12.628906 22.9375 23.046875 12.515625 35.859375 12.515625 L 55.636719 12.515625 L 55.636719 16.347656 C 55.636719 16.972656 56.390625 17.28125 56.832031 16.839844 L 61.550781 12.121094 C 61.664062 12.007812 61.726562 11.882812 61.75 11.75 C 61.847656 11.558594 61.902344 11.339844 61.902344 11.109375 Z M 60.496094 34.339844 C 59.722656 34.339844 59.089844 34.972656 59.089844 35.746094 C 59.089844 48.558594 48.671875 58.976562 35.859375 58.976562 L 16.191406 58.976562 L 16.191406 55.054688 C 16.191406 54.429688 15.441406 54.121094 14.996094 54.5625 L 10.28125 59.28125 C 10.210938 59.351562 10.152344 59.433594 10.117188 59.519531 C 9.929688 59.757812 9.816406 60.0625 9.816406 60.390625 C 9.816406 61.164062 10.449219 61.796875 11.222656 61.796875 L 35.859375 61.796875 C 39.375 61.796875 42.785156 61.109375 46 59.75 C 49.097656 58.4375 51.882812 56.558594 54.273438 54.167969 C 56.664062 51.777344 58.542969 48.992188 59.855469 45.894531 C 61.214844 42.679688 61.902344 39.269531 61.902344 35.753906 C 61.902344 34.972656 61.277344 34.339844 60.496094 34.339844 Z M 60.496094 34.339844 "/>
</g>
</svg>
