<svg xmlns="http://www.w3.org/2000/svg" xmlns:xlink="http://www.w3.org/1999/xlink" width="72" height="72" version="1.1" viewBox="0 0 72 72"><g id="surface1"><path style="stroke:none;fill-rule:nonzero;fill:#fff;fill-opacity:1" d="M 19.707031 35.710938 C 19.707031 44.726562 27.015625 52.03125 36.027344 52.03125 C 45.042969 52.03125 52.347656 44.726562 52.347656 35.710938 C 52.347656 26.699219 45.042969 19.390625 36.027344 19.390625 C 27.015625 19.390625 19.707031 26.699219 19.707031 35.710938 Z M 19.707031 35.710938"/><path style="stroke:none;fill-rule:nonzero;fill:#005bff;fill-opacity:1" d="M 36.125 61.515625 C 35.738281 61.515625 35.421875 61.207031 35.421875 60.820312 C 35.421875 60.433594 35.734375 60.117188 36.121094 60.109375 C 36.34375 60.109375 36.578125 60.101562 36.800781 60.097656 C 37.1875 60.082031 37.511719 60.382812 37.527344 60.777344 C 37.539062 61.164062 37.238281 61.488281 36.84375 61.503906 C 36.617188 61.507812 36.371094 61.515625 36.125 61.515625 C 36.132812 61.515625 36.132812 61.515625 36.125 61.515625 Z M 33.320312 61.382812 C 33.300781 61.382812 33.273438 61.382812 33.242188 61.375 L 32.527344 61.292969 C 32.140625 61.242188 31.871094 60.882812 31.921875 60.503906 C 31.972656 60.117188 32.328125 59.851562 32.710938 59.898438 C 32.933594 59.925781 33.160156 59.957031 33.382812 59.976562 C 33.769531 60.019531 34.050781 60.363281 34.011719 60.75 C 33.980469 61.117188 33.679688 61.382812 33.320312 61.382812 Z M 39.628906 61.257812 C 39.285156 61.257812 38.980469 61.003906 38.933594 60.652344 C 38.875 60.265625 39.144531 59.914062 39.53125 59.855469 L 40.203125 59.75 C 40.585938 59.6875 40.949219 59.941406 41.019531 60.320312 C 41.089844 60.699219 40.832031 61.066406 40.449219 61.136719 C 40.210938 61.179688 39.972656 61.214844 39.734375 61.25 C 39.699219 61.257812 39.664062 61.257812 39.628906 61.257812 Z M 29.867188 60.769531 C 29.8125 60.769531 29.757812 60.765625 29.699219 60.75 C 29.46875 60.695312 29.234375 60.628906 29.003906 60.566406 C 28.632812 60.460938 28.414062 60.074219 28.519531 59.703125 C 28.625 59.328125 29.011719 59.113281 29.382812 59.21875 C 29.601562 59.28125 29.828125 59.335938 30.042969 59.394531 C 30.425781 59.484375 30.648438 59.871094 30.558594 60.242188 C 30.464844 60.558594 30.179688 60.769531 29.867188 60.769531 Z M 43.058594 60.503906 C 42.757812 60.503906 42.476562 60.308594 42.382812 59.996094 C 42.273438 59.625 42.488281 59.230469 42.863281 59.125 C 43.082031 59.0625 43.296875 58.992188 43.515625 58.921875 C 43.890625 58.800781 44.28125 59.007812 44.402344 59.371094 C 44.523438 59.746094 44.316406 60.136719 43.953125 60.257812 C 43.726562 60.335938 43.488281 60.40625 43.261719 60.46875 C 43.191406 60.496094 43.128906 60.503906 43.058594 60.503906 Z M 26.523438 59.679688 C 26.429688 59.679688 26.347656 59.667969 26.253906 59.632812 C 26.03125 59.539062 25.804688 59.449219 25.585938 59.351562 C 25.226562 59.195312 25.066406 58.78125 25.226562 58.421875 C 25.382812 58.0625 25.796875 57.902344 26.15625 58.0625 C 26.367188 58.15625 26.578125 58.246094 26.789062 58.332031 C 27.148438 58.480469 27.324219 58.886719 27.175781 59.246094 C 27.0625 59.519531 26.804688 59.679688 26.523438 59.679688 Z M 46.355469 59.289062 C 46.089844 59.289062 45.835938 59.132812 45.71875 58.871094 C 45.554688 58.519531 45.710938 58.097656 46.070312 57.945312 C 46.273438 57.851562 46.484375 57.753906 46.6875 57.65625 C 47.039062 57.488281 47.460938 57.628906 47.628906 57.980469 C 47.796875 58.332031 47.65625 58.753906 47.304688 58.921875 C 47.089844 59.027344 46.871094 59.132812 46.652344 59.230469 C 46.546875 59.265625 46.449219 59.289062 46.355469 59.289062 Z M 23.363281 58.132812 C 23.246094 58.132812 23.125 58.105469 23.011719 58.035156 C 22.808594 57.917969 22.597656 57.789062 22.394531 57.664062 C 22.0625 57.460938 21.957031 57.023438 22.167969 56.691406 C 22.375 56.363281 22.808594 56.257812 23.140625 56.46875 C 23.335938 56.585938 23.535156 56.707031 23.722656 56.820312 C 24.0625 57.015625 24.171875 57.445312 23.976562 57.78125 C 23.84375 58.015625 23.609375 58.132812 23.363281 58.132812 Z M 49.445312 57.613281 C 49.210938 57.613281 48.988281 57.5 48.847656 57.289062 C 48.636719 56.960938 48.734375 56.53125 49.0625 56.320312 C 49.253906 56.199219 49.445312 56.074219 49.632812 55.949219 C 49.789062 55.84375 49.976562 55.804688 50.160156 55.839844 C 50.34375 55.875 50.507812 55.980469 50.609375 56.136719 C 50.714844 56.292969 50.753906 56.480469 50.71875 56.664062 C 50.683594 56.847656 50.578125 57.011719 50.421875 57.113281 C 50.222656 57.25 50.019531 57.382812 49.816406 57.507812 C 49.695312 57.578125 49.570312 57.613281 49.445312 57.613281 Z M 20.460938 56.164062 C 20.304688 56.164062 20.160156 56.117188 20.023438 56.019531 C 19.835938 55.871094 19.644531 55.714844 19.460938 55.5625 C 19.167969 55.316406 19.125 54.871094 19.371094 54.570312 C 19.617188 54.273438 20.058594 54.230469 20.363281 54.476562 C 20.539062 54.625 20.714844 54.765625 20.898438 54.90625 C 21.199219 55.144531 21.253906 55.589844 21.015625 55.890625 C 20.875 56.074219 20.664062 56.164062 20.460938 56.164062 Z M 52.261719 55.53125 C 52.066406 55.53125 51.871094 55.449219 51.730469 55.285156 C 51.476562 54.992188 51.511719 54.546875 51.804688 54.296875 C 51.980469 54.148438 52.152344 54 52.320312 53.84375 C 52.609375 53.585938 53.050781 53.605469 53.3125 53.894531 C 53.570312 54.183594 53.550781 54.625 53.261719 54.886719 C 53.085938 55.046875 52.902344 55.210938 52.71875 55.363281 C 52.585938 55.476562 52.425781 55.53125 52.261719 55.53125 Z M 17.851562 53.808594 C 17.667969 53.808594 17.488281 53.738281 17.347656 53.59375 C 17.175781 53.421875 17.015625 53.242188 16.855469 53.066406 C 16.59375 52.777344 16.613281 52.332031 16.902344 52.074219 C 17.191406 51.8125 17.632812 51.835938 17.894531 52.121094 C 18.050781 52.292969 18.203125 52.460938 18.359375 52.621094 C 18.625 52.902344 18.617188 53.347656 18.335938 53.613281 C 18.203125 53.746094 18.027344 53.808594 17.851562 53.808594 Z M 54.773438 53.078125 C 54.605469 53.078125 54.441406 53.023438 54.308594 52.902344 C 54.019531 52.644531 53.992188 52.199219 54.253906 51.910156 C 54.402344 51.742188 54.554688 51.566406 54.703125 51.390625 C 54.957031 51.097656 55.398438 51.054688 55.695312 51.308594 C 55.988281 51.558594 56.03125 52.003906 55.777344 52.296875 C 55.625 52.480469 55.460938 52.664062 55.308594 52.847656 C 55.160156 52.996094 54.96875 53.078125 54.773438 53.078125 Z M 15.601562 51.117188 C 15.382812 51.117188 15.171875 51.019531 15.03125 50.828125 C 14.890625 50.632812 14.75 50.433594 14.617188 50.238281 C 14.398438 49.914062 14.476562 49.480469 14.800781 49.261719 C 15.125 49.042969 15.558594 49.121094 15.777344 49.445312 C 15.90625 49.632812 16.039062 49.816406 16.171875 50 C 16.398438 50.316406 16.328125 50.75 16.015625 50.984375 C 15.890625 51.074219 15.742188 51.117188 15.601562 51.117188 Z M 56.925781 50.292969 C 56.792969 50.292969 56.65625 50.257812 56.539062 50.175781 C 56.214844 49.957031 56.128906 49.519531 56.339844 49.199219 C 56.46875 49.007812 56.59375 48.816406 56.714844 48.621094 C 56.917969 48.289062 57.355469 48.191406 57.683594 48.394531 C 58.015625 48.601562 58.113281 49.035156 57.910156 49.367188 C 57.78125 49.570312 57.648438 49.773438 57.515625 49.972656 C 57.375 50.1875 57.148438 50.292969 56.925781 50.292969 Z M 13.738281 48.144531 C 13.484375 48.144531 13.246094 48.007812 13.121094 47.769531 C 13.007812 47.558594 12.894531 47.339844 12.789062 47.128906 C 12.613281 46.785156 12.761719 46.363281 13.105469 46.1875 C 13.457031 46.011719 13.871094 46.160156 14.046875 46.503906 C 14.148438 46.707031 14.253906 46.914062 14.359375 47.109375 C 14.539062 47.453125 14.40625 47.875 14.070312 48.058594 C 13.964844 48.113281 13.851562 48.144531 13.738281 48.144531 Z M 58.660156 47.242188 C 58.554688 47.242188 58.457031 47.222656 58.359375 47.171875 C 58.007812 47.003906 57.859375 46.582031 58.027344 46.238281 C 58.128906 46.035156 58.226562 45.824219 58.316406 45.617188 C 58.480469 45.265625 58.894531 45.105469 59.246094 45.261719 C 59.597656 45.421875 59.757812 45.835938 59.605469 46.1875 C 59.503906 46.40625 59.40625 46.632812 59.300781 46.84375 C 59.175781 47.09375 58.921875 47.242188 58.660156 47.242188 Z M 12.320312 44.929688 C 12.03125 44.929688 11.761719 44.753906 11.65625 44.464844 C 11.574219 44.242188 11.496094 44.007812 11.417969 43.785156 C 11.300781 43.417969 11.496094 43.015625 11.867188 42.898438 C 12.234375 42.777344 12.636719 42.976562 12.753906 43.347656 C 12.824219 43.566406 12.902344 43.785156 12.980469 43.996094 C 13.113281 44.359375 12.921875 44.761719 12.558594 44.894531 C 12.480469 44.921875 12.394531 44.929688 12.320312 44.929688 Z M 59.957031 43.972656 C 59.886719 43.972656 59.816406 43.960938 59.746094 43.9375 C 59.371094 43.820312 59.167969 43.425781 59.289062 43.050781 C 59.359375 42.835938 59.421875 42.617188 59.484375 42.398438 C 59.589844 42.027344 59.984375 41.808594 60.355469 41.914062 C 60.730469 42.019531 60.945312 42.414062 60.839844 42.785156 C 60.777344 43.015625 60.707031 43.25 60.628906 43.472656 C 60.53125 43.785156 60.257812 43.972656 59.957031 43.972656 Z M 11.355469 41.554688 C 11.03125 41.554688 10.738281 41.328125 10.667969 41 C 10.617188 40.765625 10.566406 40.527344 10.527344 40.289062 C 10.457031 39.910156 10.707031 39.542969 11.09375 39.472656 C 11.476562 39.402344 11.839844 39.65625 11.910156 40.042969 C 11.953125 40.269531 11.996094 40.492188 12.042969 40.710938 C 12.121094 41.089844 11.882812 41.464844 11.503906 41.539062 C 11.453125 41.546875 11.40625 41.554688 11.355469 41.554688 Z M 60.777344 40.5625 C 60.742188 40.5625 60.699219 40.5625 60.660156 40.554688 C 60.277344 40.492188 60.019531 40.128906 60.082031 39.746094 L 60.1875 39.074219 C 60.242188 38.6875 60.59375 38.417969 60.980469 38.476562 C 61.367188 38.53125 61.636719 38.882812 61.578125 39.269531 C 61.542969 39.507812 61.507812 39.746094 61.46875 39.988281 C 61.417969 40.316406 61.117188 40.5625 60.777344 40.5625 Z M 10.878906 38.074219 C 10.511719 38.074219 10.203125 37.792969 10.175781 37.421875 C 10.160156 37.179688 10.144531 36.933594 10.140625 36.695312 C 10.125 36.308594 10.425781 35.980469 10.8125 35.964844 C 11.199219 35.949219 11.53125 36.253906 11.546875 36.640625 C 11.550781 36.863281 11.566406 37.097656 11.582031 37.320312 C 11.609375 37.707031 11.3125 38.046875 10.925781 38.066406 C 10.90625 38.074219 10.890625 38.074219 10.878906 38.074219 Z M 61.121094 37.070312 L 61.101562 37.070312 C 60.714844 37.054688 60.40625 36.738281 60.417969 36.34375 C 60.425781 36.121094 60.425781 35.886719 60.425781 35.664062 C 60.425781 35.277344 60.742188 34.960938 61.128906 34.960938 C 61.515625 34.960938 61.832031 35.277344 61.832031 35.664062 C 61.832031 35.902344 61.832031 36.148438 61.824219 36.386719 C 61.8125 36.765625 61.503906 37.070312 61.121094 37.070312 Z M 10.882812 34.566406 L 10.835938 34.566406 C 10.449219 34.539062 10.152344 34.199219 10.179688 33.8125 C 10.195312 33.574219 10.214844 33.335938 10.246094 33.097656 C 10.28125 32.710938 10.625 32.429688 11.011719 32.464844 C 11.398438 32.5 11.679688 32.84375 11.644531 33.230469 C 11.621094 33.453125 11.601562 33.6875 11.585938 33.910156 C 11.558594 34.285156 11.25 34.566406 10.882812 34.566406 Z M 60.980469 33.652344 C 60.628906 33.652344 60.320312 33.382812 60.285156 33.027344 C 60.265625 32.800781 60.238281 32.574219 60.203125 32.351562 C 60.152344 31.964844 60.417969 31.613281 60.804688 31.554688 C 61.191406 31.507812 61.542969 31.773438 61.601562 32.160156 C 61.636719 32.398438 61.664062 32.640625 61.683594 32.878906 C 61.726562 33.265625 61.445312 33.609375 61.058594 33.652344 Z M 11.375 31.085938 C 11.328125 31.085938 11.277344 31.078125 11.230469 31.070312 C 10.847656 30.988281 10.609375 30.613281 10.6875 30.234375 C 10.738281 29.996094 10.792969 29.761719 10.847656 29.53125 C 10.941406 29.152344 11.320312 28.917969 11.699219 29.011719 C 12.078125 29.101562 12.3125 29.480469 12.21875 29.863281 C 12.164062 30.078125 12.113281 30.304688 12.066406 30.53125 C 11.988281 30.859375 11.699219 31.085938 11.375 31.085938 Z M 60.363281 30.191406 C 60.046875 30.191406 59.765625 29.980469 59.679688 29.65625 C 59.625 29.441406 59.570312 29.214844 59.503906 28.996094 C 59.398438 28.625 59.617188 28.238281 59.992188 28.132812 C 60.363281 28.027344 60.75 28.246094 60.855469 28.617188 L 61.046875 29.3125 C 61.144531 29.691406 60.910156 30.074219 60.53125 30.164062 C 60.484375 30.183594 60.425781 30.191406 60.363281 30.191406 Z M 12.347656 27.710938 C 12.269531 27.710938 12.183594 27.695312 12.109375 27.667969 C 11.742188 27.535156 11.558594 27.132812 11.691406 26.769531 C 11.777344 26.542969 11.863281 26.316406 11.953125 26.09375 C 12.09375 25.734375 12.507812 25.558594 12.867188 25.699219 C 13.226562 25.839844 13.402344 26.253906 13.261719 26.613281 C 13.175781 26.824219 13.09375 27.042969 13.015625 27.253906 C 12.902344 27.535156 12.636719 27.710938 12.347656 27.710938 Z M 59.273438 26.859375 C 59 26.859375 58.730469 26.699219 58.621094 26.421875 C 58.535156 26.210938 58.445312 26 58.351562 25.796875 C 58.199219 25.4375 58.359375 25.023438 58.710938 24.871094 C 59.070312 24.714844 59.484375 24.875 59.640625 25.226562 C 59.738281 25.445312 59.828125 25.671875 59.921875 25.890625 C 60.066406 26.246094 59.890625 26.664062 59.535156 26.804688 C 59.449219 26.839844 59.359375 26.859375 59.273438 26.859375 Z M 13.789062 24.503906 C 13.675781 24.503906 13.5625 24.476562 13.457031 24.417969 C 13.113281 24.238281 12.988281 23.808594 13.167969 23.46875 C 13.28125 23.257812 13.402344 23.042969 13.519531 22.835938 C 13.710938 22.5 14.148438 22.378906 14.476562 22.578125 C 14.816406 22.765625 14.933594 23.203125 14.738281 23.535156 C 14.625 23.730469 14.511719 23.933594 14.40625 24.132812 C 14.28125 24.371094 14.035156 24.503906 13.789062 24.503906 Z M 57.71875 23.710938 C 57.480469 23.710938 57.242188 23.582031 57.113281 23.359375 C 57.003906 23.160156 56.882812 22.964844 56.761719 22.773438 C 56.558594 22.445312 56.65625 22.007812 56.988281 21.804688 C 57.320312 21.601562 57.753906 21.699219 57.957031 22.027344 C 58.085938 22.234375 58.210938 22.4375 58.332031 22.648438 C 58.527344 22.984375 58.414062 23.414062 58.078125 23.609375 C 57.964844 23.679688 57.839844 23.710938 57.71875 23.710938 Z M 15.660156 21.53125 C 15.519531 21.53125 15.371094 21.488281 15.242188 21.394531 C 14.925781 21.164062 14.863281 20.726562 15.089844 20.410156 C 15.230469 20.214844 15.378906 20.023438 15.523438 19.835938 C 15.765625 19.527344 16.207031 19.46875 16.507812 19.707031 C 16.820312 19.949219 16.875 20.390625 16.636719 20.691406 C 16.496094 20.867188 16.363281 21.050781 16.226562 21.242188 C 16.085938 21.429688 15.875 21.53125 15.660156 21.53125 Z M 55.742188 20.804688 C 55.53125 20.804688 55.328125 20.714844 55.1875 20.539062 C 55.046875 20.363281 54.90625 20.179688 54.757812 20.011719 C 54.511719 19.714844 54.546875 19.273438 54.851562 19.019531 C 55.144531 18.773438 55.589844 18.808594 55.84375 19.109375 C 55.996094 19.292969 56.152344 19.484375 56.300781 19.671875 C 56.539062 19.976562 56.488281 20.417969 56.179688 20.65625 C 56.054688 20.757812 55.898438 20.804688 55.742188 20.804688 Z M 17.921875 18.84375 C 17.746094 18.84375 17.570312 18.78125 17.429688 18.648438 C 17.148438 18.378906 17.140625 17.929688 17.417969 17.65625 C 17.585938 17.488281 17.753906 17.3125 17.929688 17.140625 C 18.210938 16.867188 18.652344 16.875 18.921875 17.15625 C 19.195312 17.4375 19.1875 17.878906 18.90625 18.148438 L 18.421875 18.632812 C 18.289062 18.773438 18.105469 18.84375 17.921875 18.84375 Z M 53.382812 18.210938 C 53.207031 18.210938 53.03125 18.148438 52.894531 18.015625 C 52.734375 17.859375 52.566406 17.699219 52.398438 17.550781 C 52.109375 17.289062 52.085938 16.847656 52.347656 16.558594 C 52.609375 16.269531 53.050781 16.25 53.339844 16.507812 C 53.515625 16.671875 53.699219 16.839844 53.867188 17 C 54.148438 17.269531 54.15625 17.71875 53.886719 17.992188 C 53.753906 18.132812 53.570312 18.210938 53.382812 18.210938 Z M 20.539062 16.503906 C 20.328125 16.503906 20.125 16.410156 19.984375 16.226562 C 19.742188 15.917969 19.800781 15.484375 20.101562 15.242188 C 20.292969 15.097656 20.480469 14.949219 20.679688 14.808594 C 20.996094 14.574219 21.429688 14.644531 21.664062 14.957031 C 21.894531 15.273438 21.824219 15.707031 21.515625 15.941406 C 21.332031 16.074219 21.148438 16.214844 20.972656 16.355469 C 20.839844 16.453125 20.6875 16.503906 20.539062 16.503906 Z M 50.6875 15.960938 C 50.546875 15.960938 50.398438 15.917969 50.28125 15.828125 C 50.097656 15.695312 49.90625 15.558594 49.71875 15.433594 C 49.394531 15.214844 49.316406 14.78125 49.535156 14.457031 C 49.753906 14.132812 50.1875 14.054688 50.511719 14.273438 C 50.710938 14.40625 50.914062 14.546875 51.101562 14.6875 C 51.417969 14.914062 51.488281 15.355469 51.265625 15.671875 C 51.117188 15.855469 50.90625 15.960938 50.6875 15.960938 Z M 23.449219 14.539062 C 23.203125 14.539062 22.972656 14.414062 22.835938 14.1875 C 22.640625 13.851562 22.761719 13.421875 23.097656 13.226562 C 23.308594 13.105469 23.519531 12.988281 23.730469 12.875 C 24.074219 12.691406 24.496094 12.816406 24.679688 13.164062 C 24.863281 13.507812 24.734375 13.929688 24.390625 14.113281 C 24.195312 14.21875 23.992188 14.328125 23.792969 14.441406 C 23.6875 14.511719 23.570312 14.539062 23.449219 14.539062 Z M 47.699219 14.105469 C 47.585938 14.105469 47.476562 14.078125 47.371094 14.019531 C 47.164062 13.914062 46.960938 13.808594 46.757812 13.710938 C 46.40625 13.542969 46.265625 13.121094 46.433594 12.769531 C 46.601562 12.417969 47.023438 12.277344 47.375 12.445312 C 47.59375 12.550781 47.804688 12.664062 48.023438 12.777344 C 48.367188 12.957031 48.5 13.378906 48.320312 13.726562 C 48.199219 13.972656 47.953125 14.105469 47.699219 14.105469 Z M 26.605469 13.015625 C 26.324219 13.015625 26.066406 12.847656 25.953125 12.570312 C 25.804688 12.214844 25.980469 11.804688 26.347656 11.65625 C 26.570312 11.566406 26.796875 11.480469 27.019531 11.398438 C 27.386719 11.265625 27.789062 11.445312 27.921875 11.8125 C 28.054688 12.179688 27.871094 12.578125 27.507812 12.710938 C 27.296875 12.789062 27.078125 12.875 26.867188 12.957031 C 26.78125 12.992188 26.699219 13.015625 26.605469 13.015625 Z M 44.488281 12.683594 C 44.410156 12.683594 44.324219 12.671875 44.246094 12.640625 C 44.03125 12.566406 43.8125 12.488281 43.601562 12.417969 C 43.234375 12.296875 43.03125 11.898438 43.152344 11.53125 C 43.269531 11.164062 43.671875 10.960938 44.035156 11.082031 C 44.261719 11.160156 44.492188 11.234375 44.726562 11.320312 C 45.089844 11.453125 45.28125 11.855469 45.148438 12.21875 C 45.042969 12.507812 44.773438 12.683594 44.488281 12.683594 Z M 29.953125 11.933594 C 29.636719 11.933594 29.347656 11.714844 29.269531 11.398438 C 29.179688 11.019531 29.410156 10.636719 29.785156 10.546875 C 30.015625 10.492188 30.253906 10.433594 30.488281 10.386719 C 30.867188 10.300781 31.238281 10.546875 31.324219 10.925781 C 31.410156 11.304688 31.164062 11.679688 30.78125 11.761719 C 30.566406 11.8125 30.339844 11.863281 30.113281 11.917969 C 30.066406 11.933594 30.003906 11.933594 29.953125 11.933594 Z M 41.105469 11.734375 C 41.054688 11.734375 41.007812 11.726562 40.964844 11.722656 C 40.746094 11.671875 40.515625 11.628906 40.296875 11.59375 C 39.917969 11.523438 39.65625 11.160156 39.726562 10.777344 C 39.796875 10.398438 40.164062 10.140625 40.542969 10.210938 C 40.78125 10.25 41.019531 10.300781 41.253906 10.34375 C 41.632812 10.421875 41.878906 10.792969 41.800781 11.171875 C 41.722656 11.503906 41.429688 11.734375 41.105469 11.734375 Z M 33.414062 11.339844 C 33.054688 11.339844 32.75 11.074219 32.714844 10.707031 C 32.675781 10.320312 32.957031 9.976562 33.34375 9.933594 L 34.058594 9.871094 C 34.445312 9.84375 34.785156 10.132812 34.8125 10.519531 C 34.839844 10.90625 34.550781 11.242188 34.164062 11.269531 C 33.941406 11.285156 33.707031 11.304688 33.484375 11.328125 C 33.453125 11.335938 33.433594 11.339844 33.414062 11.339844 Z M 37.625 11.265625 L 37.574219 11.265625 C 37.351562 11.25 37.117188 11.234375 36.894531 11.230469 C 36.507812 11.214844 36.203125 10.890625 36.21875 10.496094 C 36.230469 10.109375 36.554688 9.808594 36.949219 9.824219 C 37.1875 9.828125 37.433594 9.84375 37.671875 9.859375 C 38.058594 9.886719 38.355469 10.214844 38.328125 10.601562 C 38.300781 10.976562 37.988281 11.265625 37.625 11.265625 Z M 37.625 11.265625"/><path style="stroke:none;fill-rule:nonzero;fill:#e6e6e6;fill-opacity:1" d="M 54.582031 17.21875 C 53.535156 17.21875 52.683594 18.070312 52.683594 19.117188 C 52.683594 20.164062 53.535156 21.015625 54.582031 21.015625 C 55.632812 21.015625 56.480469 20.164062 56.480469 19.117188 C 56.480469 18.070312 55.632812 17.21875 54.582031 17.21875 Z M 54.582031 17.21875"/><path style="stroke:none;fill-rule:nonzero;fill:#005bff;fill-opacity:1" d="M 54.582031 15.8125 C 52.761719 15.8125 51.277344 17.296875 51.277344 19.117188 C 51.277344 20.9375 52.761719 22.421875 54.582031 22.421875 C 56.40625 22.421875 57.886719 20.9375 57.886719 19.117188 C 57.886719 17.296875 56.40625 15.8125 54.582031 15.8125 Z M 52.679688 19.117188 C 52.679688 18.070312 53.527344 17.21875 54.578125 17.21875 C 55.625 17.21875 56.476562 18.070312 56.476562 19.117188 C 56.476562 20.164062 55.625 21.015625 54.578125 21.015625 C 53.527344 21.015625 52.679688 20.164062 52.679688 19.117188 Z M 52.679688 19.117188"/><path style="stroke:none;fill-rule:nonzero;fill:#06f3ff;fill-opacity:1" d="M 50.78125 28.6875 L 21.164062 28.6875 C 20.945312 29.144531 20.75 29.617188 20.582031 30.09375 L 51.371094 30.09375 C 51.195312 29.617188 50.996094 29.144531 50.78125 28.6875 Z M 50.78125 28.6875"/><path style="stroke:none;fill-rule:nonzero;fill:#005bff;fill-opacity:1" d="M 49.535156 22.097656 C 45.914062 18.476562 41.097656 16.480469 35.972656 16.480469 C 30.847656 16.480469 26.03125 18.476562 22.410156 22.097656 C 18.789062 25.71875 16.789062 30.535156 16.789062 35.664062 C 16.789062 40.789062 18.789062 45.605469 22.410156 49.226562 C 26.03125 52.847656 30.847656 54.84375 35.972656 54.84375 C 41.097656 54.84375 45.914062 52.847656 49.535156 49.226562 C 53.15625 45.605469 55.152344 40.789062 55.152344 35.664062 C 55.152344 30.535156 53.164062 25.71875 49.535156 22.097656 Z M 21.347656 42.996094 L 27.472656 42.996094 C 27.546875 43.222656 27.632812 43.445312 27.71875 43.671875 C 28.492188 45.667969 29.566406 47.582031 30.910156 49.351562 C 31.625 50.292969 32.335938 51.097656 32.984375 51.75 C 27.886719 50.808594 23.609375 47.496094 21.347656 42.996094 Z M 35.269531 51.976562 C 34.425781 51.242188 33.203125 50.0625 31.992188 48.460938 C 30.957031 47.089844 29.820312 45.253906 28.96875 42.988281 L 35.269531 42.988281 Z M 36.675781 51.976562 L 36.675781 42.996094 L 42.976562 42.996094 C 42.125 45.253906 40.984375 47.09375 39.953125 48.464844 C 38.742188 50.070312 37.519531 51.242188 36.675781 51.976562 Z M 38.96875 51.757812 C 39.613281 51.097656 40.324219 50.300781 41.042969 49.359375 C 42.390625 47.582031 43.46875 45.675781 44.234375 43.679688 C 44.316406 43.453125 44.402344 43.226562 44.480469 43.003906 L 50.605469 43.003906 C 48.339844 47.496094 44.066406 50.808594 38.96875 51.757812 Z M 51.230469 41.589844 L 44.914062 41.589844 C 45.429688 39.726562 45.6875 37.800781 45.6875 35.839844 C 45.6875 33.890625 45.429688 31.964844 44.921875 30.085938 L 43.453125 30.085938 C 43.960938 31.816406 44.277344 33.734375 44.277344 35.839844 C 44.277344 37.949219 43.953125 39.875 43.445312 41.589844 L 36.675781 41.589844 L 36.675781 30.09375 L 35.269531 30.09375 L 35.269531 41.589844 L 28.496094 41.589844 C 27.992188 39.875 27.667969 37.953125 27.667969 35.839844 C 27.667969 33.742188 27.992188 31.816406 28.492188 30.085938 L 27.019531 30.085938 C 26.515625 31.964844 26.253906 33.890625 26.253906 35.839844 C 26.253906 37.800781 26.515625 39.71875 27.027344 41.589844 L 20.714844 41.589844 C 19.996094 39.746094 19.601562 37.75 19.601562 35.664062 C 19.601562 33.707031 19.949219 31.832031 20.582031 30.09375 C 20.757812 29.617188 20.953125 29.144531 21.164062 28.6875 C 23.394531 23.976562 27.808594 20.488281 33.097656 19.546875 C 32.421875 20.257812 31.660156 21.121094 30.902344 22.15625 C 29.558594 23.984375 28.484375 25.9375 27.710938 27.957031 C 27.617188 28.195312 27.535156 28.441406 27.449219 28.6875 L 28.949219 28.6875 C 29.804688 26.367188 30.957031 24.453125 32 23.027344 C 33.207031 21.382812 34.425781 20.160156 35.269531 19.390625 L 35.269531 28.6875 L 36.675781 28.6875 L 36.675781 19.390625 C 37.519531 20.160156 38.734375 21.390625 39.945312 23.027344 C 40.992188 24.453125 42.144531 26.359375 42.996094 28.6875 L 44.492188 28.6875 C 44.410156 28.441406 44.324219 28.203125 44.234375 27.957031 C 43.460938 25.929688 42.390625 23.984375 41.042969 22.15625 C 40.289062 21.121094 39.53125 20.25 38.855469 19.546875 C 44.140625 20.488281 48.558594 23.976562 50.785156 28.6875 C 51.003906 29.144531 51.203125 29.617188 51.371094 30.09375 C 52.003906 31.832031 52.347656 33.707031 52.347656 35.664062 C 52.339844 37.75 51.945312 39.753906 51.230469 41.589844 Z M 51.230469 41.589844"/></g></svg>