<svg xmlns="http://www.w3.org/2000/svg" xmlns:xlink="http://www.w3.org/1999/xlink" width="72" height="72" version="1.1" viewBox="0 0 72 72"><g id="surface1"><path style="stroke:none;fill-rule:nonzero;fill:#005bff;fill-opacity:1" d="M 30.460938 57.429688 C 29.460938 57.429688 28.644531 56.617188 28.644531 55.617188 C 28.644531 54.617188 29.460938 53.804688 30.460938 53.804688 C 31.457031 53.804688 32.273438 54.617188 32.273438 55.617188 C 32.28125 56.617188 31.457031 57.429688 30.460938 57.429688 Z M 30.460938 57.429688"/><path style="stroke:none;fill-rule:nonzero;fill:#e6e6e6;fill-opacity:1" d="M 42.222656 51.800781 C 42.222656 52.15625 41.925781 52.453125 41.570312 52.453125 L 19.351562 52.453125 C 18.992188 52.453125 18.695312 52.15625 18.695312 51.800781 L 18.695312 18.308594 C 18.695312 17.949219 18.992188 17.65625 19.351562 17.65625 L 41.5625 17.65625 C 41.921875 17.65625 42.214844 17.949219 42.214844 18.308594 L 42.214844 51.800781 Z M 42.222656 51.800781"/><path style="stroke:none;fill-rule:nonzero;fill:#fff;fill-opacity:1" d="M 21.21875 24.90625 C 20.265625 24.90625 19.484375 25.683594 19.484375 26.640625 C 19.484375 27.597656 20.265625 28.378906 21.21875 28.378906 C 22.175781 28.378906 22.957031 27.597656 22.957031 26.640625 C 22.957031 25.683594 22.175781 24.90625 21.21875 24.90625 Z M 56.53125 40.625 C 54.464844 40.625 52.777344 42.3125 52.777344 44.382812 C 52.777344 46.449219 54.464844 48.136719 56.53125 48.136719 C 58.597656 48.136719 60.285156 46.449219 60.285156 44.382812 C 60.285156 42.3125 58.597656 40.625 56.53125 40.625 Z M 56.53125 40.625"/><path style="stroke:none;fill-rule:nonzero;fill:#005bff;fill-opacity:1" d="M 56.53125 39.21875 C 53.683594 39.21875 51.371094 41.535156 51.371094 44.382812 C 51.371094 47.230469 53.683594 49.542969 56.53125 49.542969 C 59.378906 49.542969 61.691406 47.230469 61.691406 44.382812 C 61.691406 41.535156 59.378906 39.21875 56.53125 39.21875 Z M 52.777344 44.382812 C 52.777344 42.3125 54.464844 40.625 56.53125 40.625 C 58.597656 40.625 60.285156 42.3125 60.285156 44.382812 C 60.285156 46.449219 58.597656 48.136719 56.53125 48.136719 C 54.457031 48.136719 52.777344 46.449219 52.777344 44.382812 Z M 52.777344 44.382812"/><path style="stroke:none;fill-rule:nonzero;fill:#fff;fill-opacity:1" d="M 25.714844 38.390625 C 24.910156 38.390625 24.265625 39.039062 24.265625 39.839844 C 24.265625 40.640625 24.910156 41.289062 25.714844 41.289062 C 26.515625 41.289062 27.160156 40.640625 27.160156 39.839844 C 27.160156 39.039062 26.507812 38.390625 25.714844 38.390625 Z M 9.019531 29.621094 C 8.066406 29.621094 7.285156 30.402344 7.285156 31.359375 C 7.285156 32.316406 8.066406 33.097656 9.019531 33.097656 C 9.976562 33.097656 10.757812 32.316406 10.757812 31.359375 C 10.757812 30.402344 9.976562 29.621094 9.019531 29.621094 Z M 9.019531 29.621094"/><path style="stroke:none;fill-rule:nonzero;fill:#005bff;fill-opacity:1" d="M 13.457031 29.152344 C 13.332031 28.785156 12.9375 28.589844 12.566406 28.707031 L 11.25 29.152344 C 10.679688 28.574219 9.894531 28.214844 9.015625 28.214844 C 7.285156 28.214844 5.871094 29.621094 5.871094 31.359375 C 5.871094 33.097656 7.277344 34.503906 9.015625 34.503906 C 10.75 34.503906 12.15625 33.097656 12.15625 31.359375 C 12.15625 31.023438 12.101562 30.691406 12.003906 30.390625 L 13.015625 30.050781 C 13.378906 29.917969 13.578125 29.523438 13.457031 29.152344 Z M 9.019531 33.089844 C 8.066406 33.089844 7.285156 32.308594 7.285156 31.351562 C 7.285156 30.394531 8.066406 29.617188 9.019531 29.617188 C 9.976562 29.617188 10.757812 30.394531 10.757812 31.351562 C 10.757812 32.308594 9.976562 33.089844 9.019531 33.089844 Z M 23.160156 30.050781 L 22.914062 29.277344 C 23.78125 28.714844 24.355469 27.746094 24.355469 26.640625 C 24.355469 24.910156 22.949219 23.5 21.214844 23.5 C 19.476562 23.5 18.070312 24.90625 18.070312 26.640625 C 18.070312 28.378906 19.476562 29.785156 21.214844 29.785156 C 21.339844 29.785156 21.464844 29.777344 21.585938 29.761719 L 21.8125 30.480469 C 21.902344 30.78125 22.183594 30.972656 22.480469 30.972656 C 22.550781 30.972656 22.621094 30.957031 22.691406 30.9375 C 23.078125 30.816406 23.28125 30.417969 23.160156 30.050781 Z M 21.859375 28.25 C 21.832031 28.257812 21.804688 28.273438 21.78125 28.28125 C 21.605469 28.34375 21.417969 28.378906 21.21875 28.378906 C 20.265625 28.378906 19.484375 27.597656 19.484375 26.640625 C 19.484375 25.683594 20.265625 24.90625 21.21875 24.90625 C 22.175781 24.90625 22.957031 25.683594 22.957031 26.640625 C 22.957031 27.367188 22.5 27.992188 21.859375 28.25 Z M 23.765625 34.988281 C 23.835938 34.988281 23.90625 34.972656 23.976562 34.953125 C 24.347656 34.832031 24.554688 34.4375 24.433594 34.074219 L 24.011719 32.730469 C 23.890625 32.359375 23.5 32.152344 23.132812 32.273438 C 22.761719 32.394531 22.554688 32.785156 22.675781 33.152344 L 23.097656 34.496094 C 23.1875 34.796875 23.464844 34.988281 23.765625 34.988281 Z M 30.796875 35.523438 L 30.234375 35.949219 C 29.925781 36.183594 29.863281 36.625 30.101562 36.933594 C 30.242188 37.117188 30.453125 37.210938 30.664062 37.210938 C 30.8125 37.210938 30.957031 37.160156 31.085938 37.070312 L 31.648438 36.640625 C 31.957031 36.40625 32.019531 35.964844 31.78125 35.65625 C 31.550781 35.347656 31.105469 35.289062 30.796875 35.523438 Z M 37.378906 31.402344 C 37.144531 31.09375 36.703125 31.027344 36.394531 31.269531 L 35.832031 31.695312 C 35.523438 31.929688 35.457031 32.371094 35.699219 32.679688 C 35.839844 32.863281 36.050781 32.957031 36.261719 32.957031 C 36.40625 32.957031 36.554688 32.90625 36.683594 32.816406 L 37.246094 32.386719 C 37.554688 32.152344 37.617188 31.710938 37.378906 31.402344 Z M 33.59375 33.390625 L 33.03125 33.820312 C 32.722656 34.050781 32.660156 34.496094 32.898438 34.804688 C 33.039062 34.988281 33.25 35.078125 33.460938 35.078125 C 33.609375 35.078125 33.757812 35.03125 33.882812 34.9375 L 34.445312 34.507812 C 34.753906 34.277344 34.820312 33.835938 34.578125 33.523438 C 34.347656 33.222656 33.90625 33.160156 33.59375 33.390625 Z M 28 37.652344 L 27.746094 37.84375 C 27.226562 37.316406 26.507812 36.984375 25.714844 36.984375 C 25.59375 36.984375 25.480469 36.992188 25.367188 37.003906 L 25.292969 36.753906 C 25.171875 36.378906 24.777344 36.175781 24.40625 36.296875 C 24.03125 36.414062 23.828125 36.808594 23.949219 37.179688 L 24.054688 37.527344 C 23.328125 38.046875 22.859375 38.890625 22.859375 39.847656 C 22.859375 41.421875 24.136719 42.699219 25.714844 42.699219 C 27.289062 42.699219 28.566406 41.421875 28.566406 39.847656 C 28.566406 39.578125 28.53125 39.320312 28.460938 39.074219 L 28.847656 38.777344 C 29.160156 38.546875 29.222656 38.101562 28.984375 37.792969 C 28.75 37.476562 28.308594 37.414062 28 37.652344 Z M 24.265625 39.839844 C 24.265625 39.039062 24.910156 38.390625 25.714844 38.390625 C 26.515625 38.390625 27.160156 39.039062 27.160156 39.839844 C 27.160156 40.640625 26.515625 41.289062 25.714844 41.289062 C 24.910156 41.289062 24.265625 40.640625 24.265625 39.839844 Z M 24.265625 39.839844"/><path style="stroke:none;fill-rule:nonzero;fill:#005bff;fill-opacity:1" d="M 60.734375 29.164062 L 46.890625 29.164062 L 46.890625 15.101562 C 46.890625 12.164062 44.5 9.773438 41.5625 9.773438 L 19.351562 9.773438 C 16.410156 9.773438 14.019531 12.164062 14.019531 15.101562 L 14.019531 56.265625 C 14.019531 59.203125 16.410156 61.59375 19.351562 61.59375 L 60.730469 61.59375 C 63.667969 61.59375 66.058594 59.230469 66.058594 56.328125 L 66.058594 34.4375 C 66.066406 31.527344 63.675781 29.164062 60.734375 29.164062 Z M 41.570312 58.78125 L 19.351562 58.78125 C 17.964844 58.78125 16.832031 57.65625 16.832031 56.265625 L 16.832031 28.757812 L 17.007812 28.703125 C 17.375 28.574219 17.570312 28.179688 17.453125 27.808594 C 17.359375 27.535156 17.105469 27.351562 16.839844 27.332031 L 16.839844 15.109375 C 16.839844 13.726562 17.964844 12.59375 19.355469 12.59375 L 41.570312 12.59375 C 42.953125 12.59375 44.085938 13.71875 44.085938 15.109375 L 44.085938 30.585938 C 43.953125 30.601562 43.8125 30.65625 43.699219 30.746094 C 43.402344 31 43.367188 31.445312 43.621094 31.738281 L 44.078125 32.273438 L 44.085938 32.28125 L 44.085938 56.269531 C 44.078125 57.65625 42.953125 58.78125 41.570312 58.78125 Z M 63.253906 56.328125 C 63.253906 57.683594 62.128906 58.78125 60.734375 58.78125 L 46.265625 58.78125 C 46.667969 58.027344 46.898438 57.179688 46.898438 56.265625 L 46.898438 35.191406 C 47.058594 35.191406 47.222656 35.136719 47.347656 35.023438 C 47.644531 34.769531 47.679688 34.328125 47.425781 34.03125 L 46.96875 33.496094 C 46.949219 33.46875 46.917969 33.449219 46.890625 33.417969 L 46.890625 31.976562 L 60.734375 31.976562 C 62.121094 31.976562 63.253906 33.082031 63.253906 34.433594 Z M 63.253906 56.328125"/><path style="stroke:none;fill-rule:nonzero;fill:#005bff;fill-opacity:1" d="M 51.53125 38.847656 C 51.277344 38.550781 50.835938 38.515625 50.539062 38.769531 C 50.246094 39.023438 50.210938 39.464844 50.464844 39.761719 L 50.921875 40.296875 C 51.0625 40.457031 51.257812 40.542969 51.453125 40.542969 C 51.617188 40.542969 51.777344 40.484375 51.910156 40.375 C 52.207031 40.121094 52.242188 39.675781 51.988281 39.382812 Z M 49.246094 36.175781 C 48.992188 35.878906 48.550781 35.84375 48.253906 36.097656 C 47.960938 36.351562 47.925781 36.792969 48.179688 37.089844 L 48.636719 37.625 C 48.777344 37.785156 48.972656 37.871094 49.167969 37.871094 C 49.332031 37.871094 49.492188 37.8125 49.625 37.703125 C 49.921875 37.449219 49.957031 37.003906 49.703125 36.710938 Z M 49.246094 36.175781"/><path style="stroke:none;fill-rule:nonzero;fill:#06f3ff;fill-opacity:1" d="M 34.714844 15.679688 L 26.207031 15.679688 C 25.820312 15.679688 25.503906 15.363281 25.503906 14.976562 C 25.503906 14.589844 25.820312 14.273438 26.207031 14.273438 L 34.714844 14.273438 C 35.101562 14.273438 35.417969 14.589844 35.417969 14.976562 C 35.417969 15.363281 35.101562 15.679688 34.714844 15.679688 Z M 34.714844 15.679688"/><path style="stroke:none;fill-rule:nonzero;fill:#fff;fill-opacity:1" d="M 41.996094 22.507812 C 39.636719 22.507812 37.714844 24.425781 37.714844 26.789062 C 37.714844 29.152344 39.636719 31.070312 41.996094 31.070312 C 44.359375 31.070312 46.28125 29.152344 46.28125 26.789062 C 46.28125 24.425781 44.359375 22.507812 41.996094 22.507812 Z M 41.996094 22.507812"/><path style="stroke:none;fill-rule:nonzero;fill:#005bff;fill-opacity:1" d="M 41.996094 21.101562 C 38.863281 21.101562 36.308594 23.652344 36.308594 26.789062 C 36.308594 29.925781 38.863281 32.476562 41.996094 32.476562 C 45.132812 32.476562 47.6875 29.925781 47.6875 26.789062 C 47.6875 23.652344 45.132812 21.101562 41.996094 21.101562 Z M 37.722656 26.789062 C 37.722656 24.425781 39.640625 22.507812 42.003906 22.507812 C 44.367188 22.507812 46.285156 24.425781 46.285156 26.789062 C 46.285156 29.152344 44.367188 31.070312 42.003906 31.070312 C 39.640625 31.070312 37.722656 29.152344 37.722656 26.789062 Z M 37.722656 26.789062"/></g></svg>